<?xml version="1.0" encoding="utf-8"?>
<!-- Generator: Adobe Illustrator 27.0.1, SVG Export Plug-In . SVG Version: 6.00 Build 0)  -->
<svg version="1.1" id="Layer_1" xmlns="http://www.w3.org/2000/svg" xmlns:xlink="http://www.w3.org/1999/xlink" x="0px" y="0px"
	 viewBox="0 0 31 31" style="enable-background:new 0 0 31 31;" xml:space="preserve">
<path d="M2.9,29.9l-2.7-2.7c-0.2-0.2-0.2-0.7,0-0.9l7.5-7.5c-1.3-2-1.9-4.2-1.9-6.6C5.8,5.4,11.2,0,17.9,0c6.7,0,12.1,5.4,12.1,12.1
	c0,6.7-5.5,12.1-12.1,12.1c-2.4,0-4.7-0.7-6.6-1.9l-7.5,7.5C3.6,30.1,3.2,30.1,2.9,29.9 M17.9,20.4c4.6,0,8.3-3.7,8.3-8.3
	c0-4.6-3.7-8.3-8.3-8.3c-4.6,0-8.3,3.7-8.3,8.3S13.3,20.4,17.9,20.4"/>
</svg>
