<?xml version="1.0" encoding="utf-8"?>
<!-- Generator: Adobe Illustrator 27.0.1, SVG Export Plug-In . SVG Version: 6.00 Build 0)  -->
<svg version="1.1" id="Camada_1" xmlns="http://www.w3.org/2000/svg" xmlns:xlink="http://www.w3.org/1999/xlink" x="0px" y="0px"
	 viewBox="0 0 35 35" style="enable-background:new 0 0 35 35;" xml:space="preserve">
<path d="M10.9,27.5c-1.9,0-3.4,1.5-3.4,3.4c0,1.9,1.5,3.4,3.4,3.4c1.9,0,3.4-1.5,3.4-3.4C14.3,29,12.8,27.5,10.9,27.5z M0.8,0.4v3.4
	h3.4l6.1,12.9l-2.3,4.1c-0.3,0.5-0.4,1.1-0.4,1.6c0,1.9,1.5,3.4,3.4,3.4h20.3v-3.4H11.6c-0.2,0-0.4-0.2-0.4-0.4c0,0,0,0,0,0l0.1-0.2
	l1.5-2.8h12.6c1.2,0,2.4-0.7,3-1.7l6.1-11c0.4-0.8,0.1-1.9-0.7-2.3c-0.2-0.1-0.5-0.2-0.8-0.2h-25L6.3,0.4L0.8,0.4L0.8,0.4z
	 M27.9,27.5c-1.9,0-3.4,1.5-3.4,3.4c0,1.9,1.5,3.4,3.4,3.4s3.4-1.5,3.4-3.4C31.2,29,29.7,27.5,27.9,27.5z"/>
</svg>
