<?xml version="1.0" encoding="utf-8"?>
<!-- Generator: Adobe Illustrator 16.0.0, SVG Export Plug-In . SVG Version: 6.00 Build 0)  -->
<!DOCTYPE svg PUBLIC "-//W3C//DTD SVG 1.1//EN" "http://www.w3.org/Graphics/SVG/1.1/DTD/svg11.dtd">
<svg version="1.1" id="Layer_1" xmlns="http://www.w3.org/2000/svg" xmlns:xlink="http://www.w3.org/1999/xlink" x="0px" y="0px"
	 width="32px" height="32px" viewBox="0 0 339.99 339.996" enable-background="new 0 0 339.99 339.996"
	 xml:space="preserve">
<path fill="#3C3C3C" d="M317.235,255.005c14.901-25.763,22.755-55.056,22.755-85.003c0-93.736-76.26-169.995-169.995-169.995
	S0,76.266,0,170.002c0,9.026,0.725,18.021,2.144,26.888c-0.019,0.662,0.027,1.335,0.146,2.013
	c2.877,16.529,8.257,32.555,15.837,47.507c0.287,0.569,0.576,1.137,0.869,1.703c0.394,0.755,0.793,1.507,1.198,2.256
	c0.292,0.542,0.569,1.092,0.866,1.631c0.089,0.161,0.191,0.31,0.287,0.463c4.612,8.258,9.903,16.154,15.855,23.568
	c13.616,16.961,30.26,31.04,48.977,41.611c0.546,0.485,1.149,0.924,1.816,1.292c24.976,13.778,53.331,21.062,82,21.062
	c29.949,0,59.245-7.857,85.015-22.762c15.754,4.227,31.506,8.453,47.263,12.675c7.704,2.147,16.044-0.021,21.774-5.669
	c5.812-5.727,8.026-13.854,5.922-21.752C325.725,286.651,321.479,270.828,317.235,255.005z"/>
<path fill="#FFFFFF" d="M147.963,232.899c6.074,6.074,14.053,14.11,22.032,14.11c7.979,0,15.958-8.037,22.033-14.11l43.39-50.39
	c19.985-19.987,19.985-52.506,0-72.493C217.648,92.247,190,86,170.003,111.104c-6.753-10.604-18.602-16.102-29.183-16.102
	c-13.691,0-26.564,5.333-36.246,15.014c-19.986,19.986-19.986,52.506,0,72.493L147.963,232.899z"/>
<path d="M343.63,426.643"/>
<path d="M346.646,423.652"/>
</svg>
