<?xml version="1.0" encoding="utf-8"?>
<!-- Generator: Adobe Illustrator 27.0.1, SVG Export Plug-In . SVG Version: 6.00 Build 0)  -->
<svg version="1.1" id="Layer_1" xmlns="http://www.w3.org/2000/svg" xmlns:xlink="http://www.w3.org/1999/xlink" x="0px" y="0px"
	 viewBox="0 0 16 14" style="enable-background:new 0 0 16 14;" xml:space="preserve">
<path d="M16,4.6L16,4.6l0-0.1h0c0-1.2-0.5-2.3-1.3-3.1C13.9,0.5,12.8,0,11.6,0v0h-0.1c0,0,0,0,0,0c0,0,0,0,0,0v0l0,0v0c0,0,0,0,0,0
	h-0.1v0C10.1,0,8.9,0.6,8,1.6C7.1,0.6,5.8,0,4.5,0C3.7,0,3,0.2,2.2,0.6C0.1,1.9-0.6,4.7,0.6,6.9c0.2,0.4,0.5,0.7,0.8,1l5.7,5.4
	c0.2,0.3,0.5,0.4,0.9,0.4c0.2,0,0.5-0.1,0.7-0.2c0,0,0,0,0,0l0,0l0.1-0.1l5.8-5.5C15.5,7,16,5.9,16,4.7h0V4.6L16,4.6L16,4.6z
	 M15,4.7c0,0.9-0.4,1.8-1.1,2.5l-5.8,5.5l-0.1,0.1c0,0,0,0,0,0c0,0-0.1,0-0.1,0l0-0.1l0,0L2.1,7.1C1.9,6.9,1.7,6.7,1.5,6.4
	c-1-1.7-0.4-3.9,1.2-4.9C3.3,1.2,3.9,1,4.5,1c1,0,2,0.5,2.7,1.2L8,3.1l0.8-0.9C9.4,1.5,10.4,1,11.5,1h0c0.9,0,1.8,0.4,2.5,1.1
	c0.6,0.6,1,1.5,1,2.4V4.7L15,4.7z"/>
</svg>
