<?xml version="1.0" encoding="utf-8"?>
<!-- Generator: Adobe Illustrator 24.1.1, SVG Export Plug-In . SVG Version: 6.00 Build 0)  -->
<svg version="1.1" id="Layer_1" xmlns="http://www.w3.org/2000/svg" xmlns:xlink="http://www.w3.org/1999/xlink" x="0px" y="0px"
	 viewBox="0 0 182 46" style="enable-background:new 0 0 182 46;" xml:space="preserve">
<style type="text/css">
	.st0{fill:#cccccc;}
	.st1{fill:none;}
	.st2{fill:#414141;}
	.st3{font-family:'Nunito', Arial, sans-serif;}
	.st4{font-size:14px;}
	.st5{fill:none;stroke:#414141;stroke-width:1.5;stroke-miterlimit:10;}
</style>
<g>
	<path class="st0" d="M177,46H5c-2.8,0-5-2.2-5-5V5c0-2.8,2.2-5,5-5h172c2.8,0,5,2.2,5,5v36C182,43.8,179.8,46,177,46z"/>
	<g>
		<rect x="52" y="9.6" class="st1" width="99.6" height="27.2"/>
		<text transform="matrix(1 0 0 1 73.0396 19.4984)"><tspan x="0" y="0" class="st2 st3 st4">GUIA DE </tspan><tspan x="-3.5" y="16.8" class="st2 st3 st4">MEDIDAS</tspan></text>
        <text fill="none" stroke="#414141" stroke-width="0.25" stroke-miterlimit="10" transform="matrix(1 0 0 1 73.0396 19.4984)"><tspan x="0" y="0" class="st2 st3 st4">GUIA DE </tspan><tspan x="-3.5" y="16.8" class="st2 st3 st4">MEDIDAS</tspan></text>
		<path class="st5" d="M47.2,42.2H36c-0.8,0-1.4-0.6-1.4-1.4V7.2c0-0.8,0.6-1.4,1.4-1.4h11.3c0.8,0,1.4,0.6,1.4,1.4v33.6
			C48.6,41.6,48,42.2,47.2,42.2z"/>
		<line class="st5" x1="41.7" y1="13" x2="48.4" y2="13"/>
		<line class="st5" x1="41.7" y1="20.8" x2="48.4" y2="20.8"/>
		<line class="st5" x1="41.7" y1="28.5" x2="48.4" y2="28.5"/>
		<line class="st5" x1="41.7" y1="36.3" x2="48.4" y2="36.3"/>
		<line class="st5" x1="44.1" y1="17.1" x2="48.4" y2="17.1"/>
		<line class="st5" x1="44.1" y1="24.8" x2="48.4" y2="24.8"/>
		<line class="st5" x1="44.1" y1="32.6" x2="48.4" y2="32.6"/>
	</g>
</g>
</svg>
