<?xml version="1.0" encoding="utf-8"?>
<!-- Generator: Adobe Illustrator 24.1.1, SVG Export Plug-In . SVG Version: 6.00 Build 0)  -->
<svg version="1.1" id="Layer_1" xmlns="http://www.w3.org/2000/svg" xmlns:xlink="http://www.w3.org/1999/xlink" x="0px" y="0px"
	 viewBox="0 0 182 46" style="enable-background:new 0 0 182 46;" xml:space="preserve">
<style type="text/css">
	.st0{fill:#E2F2FF;}
	.st1{fill:none;}
	.st2{fill:#008AE4;}
	.st3{font-family:'Nunito', Arial, sans-serif;}
	.st4{font-size:14px;}
	.st5{fill:none;stroke:#008AE4;stroke-width:1.5;stroke-linecap:round;stroke-linejoin:round;stroke-miterlimit:10;}
</style>
<g>
	<path class="st0" d="M177,46H5c-2.8,0-5-2.2-5-5V5c0-2.8,2.2-5,5-5h172c2.8,0,5,2.2,5,5v36C182,43.8,179.8,46,177,46z"/>
	<g>
		<g>
			<rect x="48.5" y="9.4" class="st1" width="100.9" height="27.2"/>
			<text transform="matrix(1 0 0 1 81.4668 19.3592)"><tspan x="0" y="0" class="st2 st3 st4">MAIS </tspan><tspan x="-6.1" y="16.8" class="st2 st3 st4">CORES</tspan></text>
            <text fill="none" stroke="#008AE4" stroke-width="0.25" stroke-miterlimit="10" transform="matrix(1 0 0 1 81.4668 19.3592)"><tspan x="0" y="0" class="st2 st3 st4">MAIS </tspan><tspan x="-6.1" y="16.8" class="st2 st3 st4">CORES</tspan></text>
		</g>
		<path class="st5" d="M49.6,29.1c1.8,8.9-11.1,10.3-16.8,4.6s-5.7-15,0-20.7S50,5.8,53.6,13c2.8,5.5-0.8,7-2.8,10.3"/>
		<circle class="st5" cx="38.9" cy="30.2" r="2.6"/>
		<circle class="st5" cx="34.8" cy="21.5" r="2.2"/>
		<circle class="st5" cx="40.7" cy="14.4" r="2.2"/>
		<circle class="st5" cx="48.9" cy="13.8" r="1.8"/>
		<path class="st5" d="M45.5,22.8c0,0,1.5,5.2,4.2,6c2.6,0.9,4.3-2.7,0.9-4.8S45.5,22.8,45.5,22.8z"/>
		<path class="st5" d="M52.4,26.4c0.9,0.3,9.2,5.1,10.4,8.6c-3.8,0.4-9.3-2.9-11.5-6.3"/>
	</g>
</g>
</svg>
