<?xml version="1.0" encoding="utf-8"?>
<!-- Generator: Adobe Illustrator 24.1.1, SVG Export Plug-In . SVG Version: 6.00 Build 0)  -->
<svg version="1.1" id="Layer_1" xmlns="http://www.w3.org/2000/svg" xmlns:xlink="http://www.w3.org/1999/xlink" x="0px" y="0px"
	 viewBox="0 0 182 46" style="enable-background:new 0 0 182 46;" xml:space="preserve">
<style type="text/css">
	.st0{fill:#E2F2FF;}
	.st1{fill:none;}
	.st2{fill:#008AE4;}
	.st3{font-family:'Nunito', Arial, sans-serif;}
	.st4{font-size:14px;}
	.st5{fill:none;stroke:#008AE4;stroke-width:1.25;stroke-linecap:round;stroke-linejoin:round;stroke-miterlimit:10;}
</style>
<g>
	<path class="st0" d="M177,46H5c-2.8,0-5-2.2-5-5V5c0-2.8,2.2-5,5-5h172c2.8,0,5,2.2,5,5v36C182,43.8,179.8,46,177,46z"/>
	<g>
		<g>
			<g>
				<rect x="50.2" y="9.4" class="st1" width="100.9" height="30.1"/>
				<text transform="matrix(1 0 0 1 83.143 19.3196)"><tspan x="0" y="0" class="st2 st3 st4">MAIS </tspan><tspan x="-20.7" y="16.8" class="st2 st3 st4">ESTAMPAS</tspan></text>
                <text fill="none" stroke="#008AE4" stroke-width="0.25" stroke-miterlimit="10" transform="matrix(1 0 0 1 83.143 19.3196)"><tspan x="0" y="0" class="st2 st3 st4">MAIS </tspan><tspan x="-20.7" y="16.8" class="st2 st3 st4">ESTAMPAS</tspan></text>
			</g>
			<g>
				<g>
					
						<ellipse transform="matrix(0.9406 -0.3395 0.3395 0.9406 -8.3634 13.5221)" class="st5" cx="34.5" cy="30.7" rx="1.5" ry="2.2"/>
					<ellipse class="st5" cx="38.3" cy="27.1" rx="1.5" ry="2.2"/>
					
						<ellipse transform="matrix(0.3395 -0.9406 0.9406 0.3395 2.4957 64.8761)" class="st5" cx="47.4" cy="30.7" rx="2.2" ry="1.5"/>
					<ellipse class="st5" cx="43.6" cy="27.1" rx="1.5" ry="2.2"/>
					<path class="st5" d="M45,36.5c0,2.9-1.7,1.4-3.9,1.4s-4.2,1.5-4.2-1.4c0-2.9,1.8-5.3,4.1-5.3S45,33.6,45,36.5z"/>
				</g>
			</g>
			<polygon class="st5" points="50,7.8 52,11.3 55.9,12.1 53.2,15.1 53.6,19.1 50,17.5 46.3,19.1 46.7,15.1 44.1,12.1 48,11.3 			
				"/>
			<path class="st5" d="M39,12.5c0,4.4-6,8-6,8s-6-3.6-6-8s5.7-3.2,6-0.4C33.4,9.3,39,8.1,39,12.5z"/>
		</g>
	</g>
</g>
</svg>
