<?xml version="1.0" encoding="utf-8"?>
<!-- Generator: Adobe Illustrator 27.0.1, SVG Export Plug-In . SVG Version: 6.00 Build 0)  -->
<svg version="1.1" id="passo1_on" xmlns="http://www.w3.org/2000/svg" xmlns:xlink="http://www.w3.org/1999/xlink" x="0px" y="0px"
	 viewBox="0 0 132 44" style="enable-background:new 0 0 132 44;" xml:space="preserve">
<style type="text/css">
	.st0{fill:#FFFFFF;}
</style>
<rect y="11" width="132" height="1"/>
<g>
	<path d="M22.9,34.5c0,1.5-0.4,2.7-1.2,3.5c-0.8,0.8-2,1.2-3.6,1.2h-2.6V30h2.8c1.4,0,2.6,0.4,3.4,1.2C22.5,32,22.9,33.1,22.9,34.5z
		 M21.8,34.6c0-1.2-0.3-2.1-0.9-2.7c-0.6-0.6-1.5-0.9-2.7-0.9h-1.6v7.4h1.3c1.3,0,2.3-0.3,2.9-0.9C21.5,36.7,21.8,35.8,21.8,34.6z"
		/>
	<path d="M28.7,39.2l-0.2-1h-0.1c-0.3,0.4-0.7,0.7-1,0.9c-0.3,0.2-0.8,0.2-1.3,0.2c-0.7,0-1.2-0.2-1.6-0.5c-0.4-0.4-0.6-0.9-0.6-1.5
		c0-1.4,1.1-2.1,3.4-2.2h1.2v-0.4c0-0.5-0.1-0.9-0.4-1.2C27.9,33.2,27.5,33,27,33c-0.6,0-1.2,0.2-2,0.5l-0.3-0.8
		c0.3-0.2,0.7-0.3,1.1-0.4c0.4-0.1,0.8-0.2,1.2-0.2c0.8,0,1.4,0.2,1.8,0.6c0.4,0.4,0.6,1,0.6,1.8v4.7L28.7,39.2L28.7,39.2z
		 M26.4,38.5c0.7,0,1.2-0.2,1.5-0.5c0.4-0.4,0.6-0.9,0.6-1.5v-0.6h-1.1c-0.8,0-1.4,0.2-1.8,0.4S25,36.9,25,37.4
		c0,0.4,0.1,0.7,0.3,0.9C25.6,38.4,26,38.5,26.4,38.5z"/>
	<path d="M36,38.3L36,38.3c-0.5,0.7-1.3,1.1-2.2,1.1s-1.6-0.3-2.1-0.9s-0.8-1.5-0.8-2.7s0.3-2,0.8-2.7c0.5-0.7,1.2-1,2.1-1
		s1.7,0.3,2.2,1h0.1v-0.5v-0.5v-2.8H37v9.9h-0.9L36,38.3z M33.9,38.5c0.7,0,1.2-0.2,1.6-0.6c0.3-0.4,0.5-1,0.5-1.9v-0.2
		c0-1-0.2-1.7-0.5-2.1c-0.3-0.4-0.9-0.6-1.6-0.6c-0.6,0-1.1,0.2-1.4,0.7S32,35,32,35.8c0,0.9,0.2,1.6,0.5,2
		C32.8,38.3,33.3,38.5,33.9,38.5z"/>
	<path d="M44.9,35.8c0,1.1-0.3,2-0.9,2.7c-0.6,0.6-1.4,1-2.4,1c-0.6,0-1.2-0.1-1.7-0.4c-0.5-0.3-0.9-0.7-1.1-1.3
		c-0.2-0.6-0.4-1.2-0.4-1.9c0-1.1,0.3-2,0.9-2.6c0.6-0.6,1.4-0.9,2.4-0.9s1.7,0.3,2.3,1C44.6,33.8,44.9,34.7,44.9,35.8z M39.6,35.8
		c0,0.9,0.2,1.6,0.5,2c0.4,0.5,0.9,0.7,1.6,0.7c0.7,0,1.2-0.2,1.6-0.7c0.4-0.5,0.5-1.1,0.5-2c0-0.9-0.2-1.6-0.5-2
		c-0.4-0.5-0.9-0.7-1.6-0.7c-0.7,0-1.2,0.2-1.6,0.7S39.6,34.9,39.6,35.8z"/>
	<path d="M50.8,37.3c0,0.6-0.2,1.1-0.7,1.5c-0.5,0.4-1.2,0.5-2,0.5c-0.9,0-1.6-0.1-2.2-0.4v-1c0.3,0.2,0.7,0.3,1.1,0.4
		c0.4,0.1,0.8,0.1,1.1,0.1c0.6,0,1-0.1,1.3-0.3c0.3-0.2,0.4-0.4,0.4-0.8c0-0.3-0.1-0.5-0.4-0.7c-0.2-0.2-0.7-0.4-1.4-0.7
		c-0.6-0.2-1.1-0.5-1.4-0.6c-0.3-0.2-0.5-0.4-0.6-0.6s-0.2-0.5-0.2-0.8c0-0.6,0.2-1,0.7-1.3c0.5-0.3,1.1-0.5,1.9-0.5
		c0.7,0,1.5,0.2,2.2,0.5l-0.4,0.9C49.6,33.2,49,33,48.4,33c-0.5,0-0.9,0.1-1.1,0.2c-0.2,0.1-0.4,0.4-0.4,0.6s0,0.3,0.1,0.5
		c0.1,0.1,0.2,0.3,0.5,0.4c0.3,0.1,0.6,0.3,1.2,0.5c0.8,0.3,1.4,0.6,1.7,0.9C50.7,36.5,50.8,36.9,50.8,37.3z"/>
	<path d="M59.9,38.3L59.9,38.3c-0.5,0.7-1.3,1.1-2.2,1.1c-0.9,0-1.6-0.3-2.1-0.9s-0.8-1.5-0.8-2.7s0.3-2,0.8-2.7
		c0.5-0.7,1.2-1,2.1-1c0.9,0,1.7,0.3,2.2,1H60v-0.5v-0.5v-2.8h1.1v9.9H60L59.9,38.3z M57.8,38.5c0.7,0,1.2-0.2,1.6-0.6
		c0.3-0.4,0.5-1,0.5-1.9v-0.2c0-1-0.2-1.7-0.5-2.1C59,33.3,58.5,33,57.8,33c-0.6,0-1.1,0.2-1.4,0.7c-0.3,0.5-0.5,1.2-0.5,2
		c0,0.9,0.2,1.6,0.5,2C56.7,38.3,57.1,38.5,57.8,38.5z"/>
	<path d="M67,39.2l-0.2-1h-0.1c-0.3,0.4-0.7,0.7-1,0.9c-0.3,0.2-0.8,0.2-1.3,0.2c-0.7,0-1.2-0.2-1.6-0.5c-0.4-0.4-0.6-0.9-0.6-1.5
		c0-1.4,1.1-2.1,3.4-2.2h1.2v-0.4c0-0.5-0.1-0.9-0.4-1.2c-0.2-0.3-0.6-0.4-1.1-0.4c-0.6,0-1.2,0.2-2,0.5L63,32.8
		c0.3-0.2,0.7-0.3,1.1-0.4c0.4-0.1,0.8-0.2,1.2-0.2c0.8,0,1.4,0.2,1.8,0.6c0.4,0.4,0.6,1,0.6,1.8v4.7H67V39.2z M64.6,38.5
		c0.7,0,1.2-0.2,1.5-0.5c0.4-0.4,0.6-0.9,0.6-1.5v-0.6h-1.1c-0.8,0-1.4,0.2-1.8,0.4c-0.4,0.2-0.6,0.6-0.6,1.1c0,0.4,0.1,0.7,0.3,0.9
		C63.9,38.4,64.2,38.5,64.6,38.5z"/>
	<path d="M76.7,30.8c-1,0-1.8,0.3-2.4,1s-0.9,1.6-0.9,2.8c0,1.2,0.3,2.2,0.9,2.8c0.6,0.7,1.4,1,2.4,1c0.6,0,1.4-0.1,2.2-0.3V39
		c-0.6,0.2-1.4,0.4-2.4,0.4c-1.4,0-2.4-0.4-3.2-1.2c-0.7-0.8-1.1-2-1.1-3.5c0-1,0.2-1.8,0.5-2.5s0.9-1.3,1.5-1.7
		c0.7-0.4,1.5-0.6,2.4-0.6c1,0,1.8,0.2,2.6,0.5l-0.5,0.9C78.1,31,77.4,30.8,76.7,30.8z"/>
	<path d="M86.4,35.8c0,1.1-0.3,2-0.9,2.7c-0.6,0.6-1.4,1-2.4,1c-0.6,0-1.2-0.1-1.7-0.4c-0.5-0.3-0.9-0.7-1.1-1.3
		c-0.3-0.5-0.4-1.2-0.4-1.9c0-1.1,0.3-2,0.9-2.6c0.6-0.6,1.4-0.9,2.4-0.9s1.7,0.3,2.3,1C86.1,34.1,86.4,34.7,86.4,35.8z M81.1,35.8
		c0,0.9,0.2,1.6,0.5,2c0.4,0.5,0.9,0.7,1.6,0.7s1.2-0.2,1.6-0.7s0.5-1.1,0.5-2c0-0.9-0.2-1.6-0.5-2c-0.4-0.5-0.9-0.7-1.6-0.7
		s-1.2,0.2-1.6,0.7S81.1,34.9,81.1,35.8z"/>
	<path d="M96.7,39.2v-4.5c0-0.6-0.1-1-0.4-1.2c-0.2-0.3-0.6-0.4-1.1-0.4c-0.7,0-1.1,0.2-1.5,0.6c-0.4,0.4-0.5,1-0.5,1.7v3.9h-1.1
		v-4.5c0-0.6-0.1-1-0.4-1.2c-0.2-0.3-0.6-0.4-1.1-0.4c-0.7,0-1.1,0.2-1.5,0.6c-0.3,0.4-0.5,1-0.5,1.9v3.7h-1.1v-7h0.9l0.2,1h0.1
		c0.2-0.3,0.5-0.6,0.8-0.8c0.4-0.2,0.8-0.3,1.2-0.3c1.1,0,1.8,0.4,2.1,1.2h0.1c0.2-0.4,0.5-0.7,0.9-0.9c0.4-0.2,0.8-0.3,1.3-0.3
		c0.8,0,1.4,0.2,1.8,0.6c0.4,0.4,0.6,1.1,0.6,1.9v4.5L96.7,39.2L96.7,39.2z"/>
	<path d="M102.8,39.4c-0.5,0-0.9-0.1-1.2-0.3c-0.4-0.2-0.7-0.4-0.9-0.8h-0.1c0.1,0.4,0.1,0.8,0.1,1.2v2.9h-1.1V32.3h0.9l0.1,1h0.1
		c0.3-0.4,0.6-0.7,0.9-0.8c0.4-0.2,0.8-0.3,1.2-0.3c0.9,0,1.6,0.3,2.1,0.9c0.5,0.6,0.8,1.5,0.8,2.7c0,1.1-0.3,2-0.8,2.7
		S103.7,39.4,102.8,39.4z M102.6,33.1c-0.7,0-1.2,0.2-1.5,0.6c-0.3,0.4-0.5,1-0.5,1.9v0.2c0,1,0.2,1.7,0.5,2.1
		c0.3,0.4,0.8,0.6,1.6,0.6c0.6,0,1.1-0.2,1.4-0.7c0.3-0.5,0.5-1.2,0.5-2c0-0.9-0.2-1.5-0.5-2C103.7,33.3,103.2,33.1,102.6,33.1z"/>
	<path d="M110.3,32.2c0.3,0,0.6,0,0.8,0.1l-0.1,1c-0.3-0.1-0.5-0.1-0.8-0.1c-0.6,0-1,0.2-1.4,0.7c-0.4,0.5-0.6,1-0.6,1.7v3.7h-1.1
		v-7h0.9l0.1,1.3h0.1c0.3-0.5,0.6-0.8,0.9-1C109.4,32.4,109.8,32.2,110.3,32.2z"/>
	<path d="M116.3,39.2l-0.2-1H116c-0.3,0.4-0.7,0.7-1,0.9c-0.3,0.2-0.8,0.2-1.3,0.2c-0.7,0-1.2-0.2-1.6-0.5c-0.4-0.4-0.6-0.9-0.6-1.5
		c0-1.4,1.1-2.1,3.4-2.2h1.2v-0.4c0-0.5-0.1-0.9-0.4-1.2c-0.2-0.3-0.6-0.4-1.1-0.4c-0.6,0-1.2,0.2-2,0.5l-0.3-0.8
		c0.3-0.2,0.7-0.3,1.1-0.4c0.4-0.1,0.8-0.2,1.2-0.2c0.8,0,1.4,0.2,1.8,0.6c0.4,0.4,0.6,1,0.6,1.8v4.7h-0.7L116.3,39.2L116.3,39.2z
		 M113.9,38.5c0.7,0,1.2-0.2,1.5-0.5c0.4-0.4,0.6-0.9,0.6-1.5v-0.6h-1.1c-0.8,0-1.4,0.2-1.8,0.4c-0.4,0.2-0.6,0.6-0.6,1.1
		c0,0.4,0.1,0.7,0.3,0.9C113.2,38.4,113.5,38.5,113.9,38.5z"/>
</g>
<circle cx="66" cy="11.5" r="11.5"/>
<circle class="st0" cx="66" cy="11.5" r="10.5"/>
</svg>
