<?xml version="1.0" encoding="utf-8"?>
<!-- Generator: Adobe Illustrator 27.0.1, SVG Export Plug-In . SVG Version: 6.00 Build 0)  -->
<svg version="1.1" id="passo1_on" xmlns="http://www.w3.org/2000/svg" xmlns:xlink="http://www.w3.org/1999/xlink" x="0px" y="0px"
	 viewBox="0 0 132 44" style="enable-background:new 0 0 132 44;" xml:space="preserve">
<style type="text/css">
	.st0{fill:#FFFFFF;}
</style>
<rect y="11" width="132" height="1"/>
<g>
	<path d="M21.8,34.5c0,1.5-0.4,2.7-1.3,3.5s-2.1,1.2-3.7,1.2h-2.6V30h2.9c1.5,0,2.6,0.4,3.4,1.2C21.3,32,21.8,33.1,21.8,34.5z
		 M20.2,34.6c0-2.2-1-3.3-3.1-3.3h-1.3V38h1.1C19.1,38,20.2,36.8,20.2,34.6z"/>
	<path d="M27.7,39.2l-0.3-1h-0.1c-0.3,0.4-0.7,0.7-1,0.9c-0.3,0.2-0.8,0.2-1.3,0.2c-0.7,0-1.2-0.2-1.6-0.6c-0.4-0.4-0.6-0.9-0.6-1.6
		c0-0.7,0.3-1.3,0.8-1.6S25,35,26.1,35h1.2v-0.4c0-0.4-0.1-0.8-0.3-1c-0.2-0.2-0.5-0.3-1-0.3c-0.4,0-0.7,0.1-1,0.2s-0.6,0.2-1,0.4
		l-0.5-1.1c0.4-0.2,0.8-0.4,1.3-0.5c0.5-0.1,0.9-0.2,1.3-0.2c0.9,0,1.6,0.2,2,0.6c0.5,0.4,0.7,1,0.7,1.8v4.7L27.7,39.2L27.7,39.2z
		 M25.5,38.2c0.5,0,1-0.2,1.3-0.5s0.5-0.7,0.5-1.3v-0.6h-0.9c-0.7,0-1.2,0.1-1.5,0.4c-0.3,0.2-0.5,0.5-0.5,1c0,0.3,0.1,0.6,0.3,0.7
		C24.9,38,25.1,38.2,25.5,38.2z"/>
	<path d="M32.8,39.4c-0.9,0-1.6-0.3-2.1-1c-0.5-0.7-0.7-1.5-0.7-2.7s0.2-2,0.7-2.7c0.5-0.6,1.2-1,2.1-1c0.9,0,1.6,0.3,2.1,1H35
		c-0.1-0.5-0.1-0.9-0.1-1.2v-2.6h1.5v9.9h-1.2L35,38.3h-0.1C34.4,39,33.7,39.4,32.8,39.4z M33.2,38.2c0.6,0,1.1-0.2,1.3-0.5
		c0.3-0.3,0.4-0.9,0.4-1.7v-0.2c0-0.9-0.1-1.5-0.4-1.9c-0.3-0.4-0.7-0.6-1.4-0.6c-0.5,0-0.9,0.2-1.2,0.6c-0.3,0.4-0.4,1-0.4,1.8
		s0.1,1.4,0.4,1.8C32.2,37.9,32.7,38.2,33.2,38.2z"/>
	<path d="M44.4,35.7c0,1.1-0.3,2-0.9,2.7c-0.6,0.6-1.4,1-2.5,1c-0.7,0-1.2-0.1-1.7-0.4s-0.9-0.7-1.2-1.3c-0.3-0.6-0.4-1.2-0.4-1.9
		c0-1.1,0.3-2,0.9-2.7c0.6-0.7,1.4-1,2.5-1c1,0,1.8,0.3,2.4,1C44.1,33.7,44.4,34.6,44.4,35.7z M39.3,35.7c0,1.6,0.6,2.4,1.8,2.4
		s1.8-0.8,1.8-2.4c0-1.6-0.6-2.4-1.8-2.4c-0.6,0-1.1,0.2-1.4,0.6C39.4,34.4,39.3,34.9,39.3,35.7z"/>
	<path d="M50.4,37.2c0,0.7-0.2,1.2-0.7,1.6c-0.5,0.4-1.2,0.5-2.1,0.5s-1.7-0.1-2.3-0.4v-1.3c0.8,0.4,1.6,0.6,2.3,0.6
		c0.9,0,1.4-0.3,1.4-0.8c0-0.2-0.1-0.3-0.2-0.4c-0.1-0.1-0.3-0.2-0.5-0.4c-0.2-0.2-0.6-0.3-1-0.4c-0.8-0.3-1.4-0.6-1.6-0.9
		c-0.3-0.3-0.4-0.7-0.4-1.2c0-0.6,0.2-1.1,0.7-1.4s1.1-0.5,2-0.5c0.8,0,1.6,0.2,2.3,0.5l-0.5,1.1c-0.8-0.3-1.4-0.5-1.9-0.5
		c-0.8,0-1.2,0.2-1.2,0.7c0,0.2,0.1,0.4,0.3,0.6c0.2,0.2,0.7,0.4,1.3,0.6c0.6,0.2,1,0.4,1.3,0.6c0.3,0.2,0.5,0.4,0.6,0.6
		C50.4,36.6,50.4,36.9,50.4,37.2z"/>
	<path d="M57,39.4c-0.9,0-1.6-0.3-2.1-1c-0.5-0.7-0.7-1.5-0.7-2.7s0.2-2,0.7-2.7c0.5-0.6,1.2-1,2.1-1s1.6,0.3,2.1,1h0.1
		c-0.1-0.5-0.1-0.9-0.1-1.2v-2.6h1.5v9.9h-1.2l-0.3-0.9H59C58.6,39,57.9,39.4,57,39.4z M57.4,38.2c0.6,0,1.1-0.2,1.3-0.5
		c0.3-0.3,0.4-0.9,0.4-1.7v-0.2c0-0.9-0.1-1.5-0.4-1.9c-0.3-0.4-0.7-0.6-1.4-0.6c-0.5,0-0.9,0.2-1.2,0.6c-0.3,0.4-0.4,1-0.4,1.8
		s0.1,1.4,0.4,1.8C56.4,37.9,56.8,38.2,57.4,38.2z"/>
	<path d="M66.7,39.2l-0.3-1h-0.1c-0.3,0.4-0.7,0.7-1,0.9c-0.3,0.2-0.8,0.2-1.3,0.2c-0.7,0-1.2-0.2-1.6-0.6c-0.4-0.4-0.6-0.9-0.6-1.6
		c0-0.7,0.3-1.3,0.8-1.6S64,35,65.1,35h1.2v-0.4c0-0.4-0.1-0.8-0.3-1c-0.2-0.2-0.5-0.3-1-0.3c-0.4,0-0.7,0.1-1,0.2s-0.6,0.2-1,0.4
		l-0.5-1.1c0.4-0.2,0.8-0.4,1.3-0.5c0.5-0.1,0.9-0.2,1.3-0.2c0.9,0,1.6,0.2,2,0.6c0.5,0.4,0.7,1,0.7,1.8v4.7L66.7,39.2L66.7,39.2z
		 M64.5,38.2c0.5,0,1-0.2,1.3-0.5s0.5-0.7,0.5-1.3v-0.6h-0.9c-0.7,0-1.2,0.1-1.5,0.4c-0.3,0.2-0.5,0.5-0.5,1c0,0.3,0.1,0.6,0.3,0.7
		C63.9,38,64.1,38.2,64.5,38.2z"/>
	<path d="M76.6,31.1c-0.9,0-1.6,0.3-2.1,0.9c-0.5,0.6-0.7,1.5-0.7,2.6c0,1.1,0.2,2,0.7,2.6c0.5,0.6,1.2,0.9,2.1,0.9
		c0.4,0,0.8,0,1.1-0.1c0.4-0.1,0.8-0.2,1.1-0.3V39c-0.7,0.3-1.6,0.4-2.5,0.4c-1.4,0-2.4-0.4-3.1-1.2s-1.1-2-1.1-3.5
		c0-1,0.2-1.8,0.5-2.5c0.3-0.7,0.9-1.3,1.5-1.7c0.6-0.4,1.5-0.6,2.4-0.6s1.8,0.2,2.6,0.6l-0.5,1.3c-0.3-0.1-0.6-0.3-1-0.4
		C77.3,31.2,77,31.1,76.6,31.1z"/>
	<path d="M86.6,35.7c0,1.1-0.3,2-0.9,2.7c-0.6,0.6-1.4,1-2.5,1c-0.7,0-1.2-0.1-1.7-0.4s-0.9-0.7-1.2-1.3c-0.3-0.6-0.4-1.2-0.4-1.9
		c0-1.1,0.3-2,0.9-2.7c0.6-0.7,1.4-1,2.5-1c1,0,1.8,0.3,2.4,1C86.3,33.7,86.6,34.6,86.6,35.7z M81.4,35.7c0,1.6,0.6,2.4,1.8,2.4
		s1.8-0.8,1.8-2.4c0-1.6-0.6-2.4-1.8-2.4c-0.6,0-1.1,0.2-1.4,0.6C81.6,34.4,81.4,34.9,81.4,35.7z"/>
	<path d="M93.8,39.2h-1.5v-4.3c0-0.5-0.1-0.9-0.3-1.2s-0.5-0.4-1-0.4c-0.6,0-1,0.2-1.3,0.6c-0.3,0.4-0.4,1-0.4,1.9v3.5h-1.5v-7H89
		l0.2,0.9h0.1c0.2-0.3,0.5-0.6,0.8-0.8c0.4-0.2,0.8-0.3,1.2-0.3c1.1,0,1.8,0.4,2.1,1.1h0.1c0.2-0.3,0.5-0.6,0.9-0.8
		c0.4-0.2,0.8-0.3,1.3-0.3c0.8,0,1.4,0.2,1.8,0.6c0.4,0.4,0.6,1.1,0.6,1.9v4.6h-1.5v-4.3c0-0.5-0.1-0.9-0.3-1.2s-0.5-0.4-1-0.4
		c-0.6,0-1,0.2-1.3,0.5c-0.3,0.4-0.4,0.9-0.4,1.7v3.7H93.8z"/>
	<path d="M103.5,39.4c-0.9,0-1.6-0.3-2.1-1h-0.1c0.1,0.6,0.1,1,0.1,1.1v2.9h-1.5V32.2h1.2c0,0.1,0.1,0.4,0.2,0.9h0.1
		c0.5-0.7,1.2-1.1,2.1-1.1s1.6,0.3,2,1c0.5,0.6,0.7,1.5,0.7,2.7s-0.2,2-0.7,2.7C105,39,104.4,39.4,103.5,39.4z M103.1,33.3
		c-0.6,0-1,0.2-1.3,0.5s-0.4,0.9-0.4,1.7v0.2c0,0.9,0.1,1.5,0.4,1.9c0.3,0.4,0.7,0.6,1.3,0.6c0.5,0,0.9-0.2,1.2-0.6
		c0.3-0.4,0.4-1,0.4-1.8s-0.1-1.4-0.4-1.8C104.1,33.5,103.7,33.3,103.1,33.3z"/>
	<path d="M111.2,32.1c0.3,0,0.5,0,0.7,0.1l-0.1,1.4c-0.2-0.1-0.4-0.1-0.7-0.1c-0.6,0-1.1,0.2-1.5,0.6c-0.4,0.4-0.6,0.9-0.6,1.5v3.7
		h-1.5v-7h1.2l0.2,1.2h0.1c0.2-0.4,0.5-0.8,0.9-1C110.4,32.2,110.8,32.1,111.2,32.1z"/>
	<path d="M117.2,39.2l-0.3-1h-0.1c-0.3,0.4-0.7,0.7-1,0.9c-0.3,0.2-0.8,0.2-1.3,0.2c-0.7,0-1.2-0.2-1.6-0.6
		c-0.4-0.4-0.6-0.9-0.6-1.6c0-0.7,0.3-1.3,0.8-1.6c0.5-0.4,1.4-0.6,2.5-0.6h1.2v-0.4c0-0.4-0.1-0.8-0.3-1s-0.5-0.3-1-0.3
		c-0.4,0-0.7,0.1-1,0.2c-0.3,0.1-0.6,0.2-1,0.4l-0.5-1.1c0.4-0.2,0.8-0.4,1.3-0.5c0.5-0.1,0.9-0.2,1.3-0.2c0.9,0,1.6,0.2,2,0.6
		c0.4,0.4,0.7,1,0.7,1.8v4.7h-1.1L117.2,39.2L117.2,39.2z M115,38.2c0.5,0,1-0.2,1.3-0.5s0.5-0.7,0.5-1.3v-0.6h-0.9
		c-0.7,0-1.2,0.1-1.5,0.4c-0.3,0.2-0.5,0.5-0.5,1c0,0.3,0.1,0.6,0.3,0.7C114.4,38,114.6,38.2,115,38.2z"/>
</g>
<circle cx="66" cy="11.5" r="11.5"/>
<circle class="st0" cx="66" cy="11.5" r="10.5"/>
<circle cx="66" cy="11.5" r="7.5"/>
</svg>
