<svg version="1.1" id="Layer_1" xmlns="http://www.w3.org/2000/svg" xmlns:xlink="http://www.w3.org/1999/xlink" x="0px" y="0px"
	 viewBox="0 0 500 500" enable-background="new 0 0 500 500" xml:space="preserve">
<g id="icon1">
	<g id="XMLID_27_">
		<path id="XMLID_78_" d="M206.349,207.143c1.587,0.794,2.381,1.587,3.175,3.175c-74.603,15.873-103.968,59.524-115.079,93.651
			c-0.794-1.587-1.587-2.381-1.587-3.968c7.143,18.254,19.841,26.984,38.095,26.984c39.683,0,88.095-37.302,88.095-83.333
			c0-16.667-2.381-26.984-7.937-32.54C209.524,208.73,207.937,207.937,206.349,207.143z"/>
		<path id="XMLID_80_" d="M223.016,202.381c3.175,3.968,5.556,8.73,7.143,14.286c4.762-2.381,11.111-3.968,19.048-3.968
			c8.73,0,15.079,1.587,19.048,3.968c1.587-5.556,3.968-10.317,7.143-14.286H223.016z"/>
		<path id="XMLID_81_" d="M394.444,206.349c1.587,0.794,3.175,1.587,3.968,2.381c-59.524,12.698-90.476,42.857-105.556,71.429
			c-7.143-11.111-11.905-24.603-11.905-38.095c0-19.048,3.968-29.365,11.905-34.921c-1.587,0.794-3.175,1.587-3.968,3.175
			c-5.556,5.556-7.937,15.873-7.937,32.54c0,46.032,48.413,83.333,88.095,83.333c32.54,0,46.032-23.81,46.032-83.333
			c0-13.492-3.175-23.81-8.73-29.365C402.381,210.317,399.206,207.937,394.444,206.349z"/>
		<path id="XMLID_90_" d="M250,0C111.905,0,0,111.905,0,250s111.905,250,250,250s250-111.905,250-250S388.095,0,250,0z
			 M441.27,249.206h-12.698c-0.794,43.651-9.524,91.27-60.317,91.27c-47.619,0-102.381-42.857-102.381-97.619
			c0-3.968,0-7.937,0.794-11.111c-2.381-1.587-7.143-4.762-16.667-4.762c-9.524,0-14.286,3.175-16.667,4.762
			c0,3.175,0.794,7.143,0.794,11.111c0,54.762-54.762,97.619-102.381,97.619c-50.794,0-59.524-47.619-60.317-91.27H58.73
			c-3.968,0-7.143-3.175-7.143-7.143c0-3.968,3.175-7.143,7.143-7.143h12.698c0.794-13.492,5.556-24.603,12.698-31.746
			c15.079-15.079,39.683-15.079,68.254-15.079h6.349h6.349c3.175,0,7.143,0,10.317,0h150c3.175,0,6.349,0,10.317,0h6.349h6.349
			c28.571,0,53.175,0,68.254,15.079c7.143,7.143,11.905,18.254,12.698,31.746h12.698c3.968,0,7.143,3.175,7.143,7.143
			C448.413,246.032,445.238,249.206,441.27,249.206z"/>
	</g>
</g>
</svg>
