<svg xmlns="http://www.w3.org/2000/svg" width="256" height="168" xml:space="preserve"><path fill="#FFF" d="M240 .4H16C8 .4.8 6.8.8 15.6v136.8c0 8 6.4 15.199 15.2 15.199h224c8 0 15.2-6.4 15.2-15.199V15.6C254.4 6.8 248 .4 240 .4z"/><path fill="#8E8E8E" d="M240.8 2.4c7.2 0 12.8 5.6 12.8 12.8v137.601c0 7.199-5.6 12.799-12.8 12.799H15.2c-7.2 0-12.8-5.6-12.8-12.799V15.2C2.4 8 8 2.4 15.2 2.4h225.6m0-2.4H15.2C7.2 0 0 6.4 0 15.2v137.601c0 8 6.4 15.199 15.2 15.199h225.6c8 0 15.2-6.4 15.2-15.199V15.2C256 6.4 249.6 0 240.8 0z"/><path fill="#9A9A9A" d="M108.262 120.027a1.42 1.42 0 0 1-1.419-1.42V74.196l.016-.104c.021-.145 2.318-14.514 15.604-14.514h14.624l.115.019c4.953.821 14.318 4.952 14.318 14.704v13.875l-.033.152c-.93 4.227-4.938 12.225-13.449 12.225h-20.46a1.42 1.42 0 0 1 0-2.84h20.46c7.9 0 10.33-8.592 10.645-9.857V74.301c0-9.318-10.672-11.657-11.842-11.885h-14.377c-10.429 0-12.571 10.772-12.781 12v44.191a1.423 1.423 0 0 1-1.421 1.42zM165.369 100.553a1.42 1.42 0 0 1-1.418-1.42v-32.18c0-3.349-3.799-4.369-4.531-4.536h-6.113a1.42 1.42 0 1 1 0-2.838h6.391l.127.023c2.41.444 6.965 2.552 6.965 7.351v32.18a1.423 1.423 0 0 1-1.421 1.42zM234.082 59.579h-7.33l-.227.019c-.158.026-3.947.658-6.668 3.063l-13.918 14.091c-.074.051-.391.234-1.021.234-.633 0-.949-.184-1.021-.234l-13.85-14.026-.07-.065c-2.721-2.405-6.51-3.037-6.67-3.063l-7.553-.019a1.42 1.42 0 1 0 0 2.838h7.199c.547.108 3.229.699 5.109 2.341l13.867 14.04c.17.172 1.119 1.027 2.988 1.027 1.865 0 2.816-.855 2.992-1.031l13.861-14.036c1.881-1.644 4.566-2.235 5.109-2.341h7.201c.783 0 1.418-.634 1.418-1.419a1.415 1.415 0 0 0-1.416-1.419zM234.082 97.713h-7.201c-.539-.107-3.238-.707-5.109-2.34l-13.867-14.039c-.17-.172-1.121-1.027-2.986-1.027-1.869 0-2.818.855-2.996 1.031l-13.859 14.035c-1.883 1.643-4.568 2.234-5.109 2.34h-7.199a1.42 1.42 0 0 0 0 2.84h7.441l.111-.02c.16-.025 3.949-.658 6.67-3.062l13.92-14.092c.072-.049.389-.234 1.021-.234.631 0 .947.186 1.02.234l13.85 14.026.07.066c2.721 2.404 6.51 3.037 6.668 3.062l7.557.02a1.42 1.42 0 0 0-.002-2.84z"/><path fill="#37B3A9" d="M166.043 56.438a1.15 1.15 0 0 1-1.625 0l-3.252-3.252a1.149 1.149 0 0 1 0-1.625l3.252-3.251a1.149 1.149 0 0 1 1.625 0l3.25 3.251a1.149 1.149 0 0 1 0 1.625l-3.25 3.252z"/><g fill="#37B3A9"><path d="M37.719 64.936c3.494 0 5.082 1.852 5.082 1.852l11.756 11.628c.587.479 1.128.629 1.588.621.46.008 1.002-.143 1.589-.621L69.49 66.788s1.588-1.852 5.084-1.852h2.587L64.2 51.973c-4.75-4.751-12.451-4.751-17.202 0L34.037 64.936h3.682z"/><path d="m87.136 74.909-6.978-6.978h-5.585s-2.161-.19-4.321 1.907L58.625 81.34s-.763.761-2.479.761c-1.715 0-2.477-.761-2.477-.761L42.04 69.838c-2.16-2.098-4.32-1.907-4.32-1.907h-6.679l-6.978 6.978c-4.75 4.75-4.75 12.451 0 17.201l7.019 7.02h6.638s2.16.189 4.32-1.906L53.669 85.72s.762-.762 2.477-.762c1.717 0 2.479.762 2.479.762l11.628 11.504c2.16 2.096 4.321 1.906 4.321 1.906h5.543l7.02-7.02c4.749-4.751 4.749-12.452-.001-17.201z"/><path d="M74.574 102.123c-3.496 0-5.084-1.852-5.084-1.852L57.734 88.643c-.587-.479-1.129-.629-1.589-.619-.46-.01-1.001.141-1.588.619l-11.756 11.629s-1.588 1.852-5.082 1.852h-3.642l12.92 12.922c4.751 4.75 12.452 4.75 17.202 0l12.921-12.922h-2.546z"/></g></svg>