<?xml version="1.0" encoding="utf-8"?>
<!-- Generator: Adobe Illustrator 27.0.1, SVG Export Plug-In . SVG Version: 6.00 Build 0)  -->
<svg version="1.1" id="Layer_1" xmlns="http://www.w3.org/2000/svg" xmlns:xlink="http://www.w3.org/1999/xlink" x="0px" y="0px"
	 viewBox="0 0 30 30" style="enable-background:new 0 0 30 30;" xml:space="preserve">
<g>
	<path d="M11.3,8.9c-0.1,0.1-0.2,0.2-0.3,0.3C11.2,9,11.3,8.9,11.3,8.9L11.3,8.9z"/>
	<path d="M16.5,9.8c0.4,0.5,0.6,1,0.6,1.7c0,0.5-0.1,0.9-0.4,1.3c-0.1,0.2-0.3,0.5-0.6,0.7l-0.8,0.8c-0.8,0.8-1.3,1.4-1.5,2
		c-0.2,0.6-0.3,1.4-0.3,2.3h1.8c0-0.8,0.1-1.5,0.3-1.9c0.2-0.4,0.6-1,1.2-1.6c0.9-0.9,1.5-1.5,1.8-1.9c0.3-0.4,0.4-1,0.4-1.7
		c0-1.2-0.4-2.1-1.2-2.9C17,7.9,16,7.6,14.7,7.6c-1.4,0-2.5,0.4-3.3,1.3c-0.8,0.9-1.2,2-1.2,3.5h1.8c0-0.9,0.2-1.5,0.4-2
		c0.4-0.8,1.2-1.2,2.3-1.2C15.5,9.1,16.1,9.4,16.5,9.8L16.5,9.8z"/>
	<path d="M30,15c0-8.3-6.7-15-15-15C6.7,0,0,6.7,0,15c0,8.3,6.7,15,15,15C23.3,30,30,23.3,30,15L30,15z M1.4,15
		C1.4,7.5,7.5,1.4,15,1.4c7.5,0,13.6,6.1,13.6,13.6c0,7.5-6.1,13.6-13.6,13.6C7.5,28.6,1.4,22.5,1.4,15L1.4,15z"/>
	<rect x="13.5" y="20.4" width="2" height="2.1"/>
</g>
</svg>
