<?xml version="1.0" encoding="utf-8"?>
<!-- Generator: Adobe Illustrator 27.0.1, SVG Export Plug-In . SVG Version: 6.00 Build 0)  -->
<svg version="1.1" id="Layer_1" xmlns="http://www.w3.org/2000/svg" xmlns:xlink="http://www.w3.org/1999/xlink" x="0px" y="0px"
	 viewBox="0 0 24 24" style="enable-background:new 0 0 24 24;" xml:space="preserve">
<g>
	<path d="M23.8,22.8L18,16.9c1.6-1.8,2.5-4.1,2.5-6.7C20.5,4.6,15.9,0,10.2,0C4.6,0,0,4.6,0,10.2c0,5.6,4.6,10.2,10.2,10.2
		c2.6,0,4.9-0.9,6.7-2.5l5.8,5.8c0.1,0.1,0.3,0.2,0.5,0.2c0.2,0,0.4-0.1,0.5-0.2C24.1,23.5,24.1,23.1,23.8,22.8z M1.4,10.2
		c0-4.9,3.9-8.8,8.8-8.8c4.9,0,8.8,3.9,8.8,8.8c0,4.9-3.9,8.8-8.8,8.8C5.4,19,1.4,15.1,1.4,10.2z"/>
</g>
</svg>
