<svg xmlns="http://www.w3.org/2000/svg" viewBox="-403 281.3 34 34" style="enable-background:new -403 281.3 34 34" xml:space="preserve"><g fill="#fff"><path d="M-382.8 300.4h-6.3c-.6 0-1.1.5-1.1 1.1 0 .6.5 1.1 1.1 1.1h6.3c.6 0 1.1-.5 1.1-1.1 0-.6-.5-1.1-1.1-1.1zM-389.2 296.2h3.1c.6 0 1.1-.5 1.1-1.1 0-.6-.5-1.1-1.1-1.1h-3.1c-.6 0-1.1.5-1.1 1.1.1.6.5 1.1 1.1 1.1z"/><path d="M-386 281.3c-9.4 0-17 7.6-17 17s7.6 17 17 17 17-7.6 17-17-7.6-17-17-17zm8.5 20.1c0 2.9-2.4 5.4-5.4 5.4h-6.2c-3 0-5.4-2.4-5.4-5.4v-6.3c0-3 2.4-5.4 5.4-5.4h3.8c1.4.2 3.4 1.4 4.2 2.9.2.4.3.5.5 1.8.1.7.1 1.2.4 1.5.4.4 2 .1 2.3.4l.2.2.1.3v.2l.1 4.4z"/></g></svg>