<?xml version="1.0" encoding="utf-8"?>
<!-- Generator: Adobe Illustrator 27.0.1, SVG Export Plug-In . SVG Version: 6.00 Build 0)  -->
<svg version="1.1" id="Camada_1" xmlns="http://www.w3.org/2000/svg" xmlns:xlink="http://www.w3.org/1999/xlink" x="0px" y="0px"
	 viewBox="0 0 46 46" style="enable-background:new 0 0 46 46;" xml:space="preserve">
<g id="Camada_1-2">
	<g>
		<circle cx="14.3" cy="39.2" r="1"/>
		<circle cx="26.5" cy="39.2" r="1"/>
		<path d="M0.7,12.6h6.8v19.9c-1.6,0.4-2.7,1.9-2.7,3.6c0,2.1,1.7,3.7,3.7,3.7h1.8c0.3,1.9,2,3.4,4,3.4s3.7-1.5,4-3.4h4.2
			c0.3,1.9,2,3.4,4,3.4s3.7-1.5,4-3.4h2.8v-1.4h-2.8c-0.3-1.9-2-3.4-4-3.4s-3.7,1.5-4,3.4h-4.2c-0.3-1.9-2-3.4-4-3.4s-3.7,1.5-4,3.4
			H8.5c-1.3,0-2.4-1.1-2.4-2.4c0-1.3,1.1-2.4,2.4-2.4h26.2c0.3,0,0.6-0.2,0.7-0.5l4.1-18.4c0.1-0.4-0.2-0.8-0.7-0.8h-30
			c0-0.2,0-4.9,0-4.8c0-0.4-0.3-0.7-0.7-0.7H0.7C0.3,8.5,0,8.8,0,9.2v2.7C0,12.3,0.3,12.6,0.7,12.6L0.7,12.6z M26.5,36.4
			c1.5,0,2.7,1.2,2.7,2.7c0,1.5-1.2,2.7-2.7,2.7c-1.5,0-2.7-1.2-2.7-2.7C23.8,37.7,25,36.4,26.5,36.4z M14.3,36.4
			c1.5,0,2.7,1.2,2.7,2.7c0,1.5-1.2,2.7-2.7,2.7s-2.7-1.2-2.7-2.7C11.6,37.7,12.8,36.4,14.3,36.4z M26.6,26.2h-8.1
			c0.1-1.3,0.2-2.9,0.3-4.8h8.4L26.6,26.2L26.6,26.2z M28.5,21.4h8.1l-1.1,4.8H28L28.5,21.4L28.5,21.4z M26.5,27.6l-0.5,4.8h-8.1
			c0.2-0.9,0.4-2.3,0.5-4.8H26.5z M8.8,21.4h8.6c-0.1,1.9-0.2,3.5-0.3,4.8H8.8V21.4z M18.8,20.1c0.1-1.4,0.1-3,0.2-4.8h8.8l-0.5,4.8
			H18.8L18.8,20.1z M17.5,20.1H8.8v-4.8h8.8C17.6,17.1,17.5,18.7,17.5,20.1L17.5,20.1z M8.8,27.6H17c-0.2,3-0.4,4.3-0.5,4.8H8.8
			V27.6z M34.2,32.3h-6.9l0.5-4.8h7.4L34.2,32.3L34.2,32.3z M36.9,20.1h-8.2l0.5-4.8H38L36.9,20.1L36.9,20.1z M1.3,9.9h6.1v1.4H1.3
			V9.9z"/>
	</g>
	<g id="Layer_3_00000024713090592834903340000004965194366559439282_">
		<circle cx="34.8" cy="11.2" r="11.2"/>
	</g>
</g>
</svg>
