<?xml version="1.0" encoding="UTF-8"?>
<svg id="Camada_2" data-name="Camada 2" xmlns="http://www.w3.org/2000/svg" viewBox="0 0 248.06 232.85">
  <g id="Camada_1-2" data-name="Camada 1">
    <g>
      <circle cx="77.11" cy="210.82" r="5.51"/>
      <circle cx="143.21" cy="210.82" r="5.51"/>
      <path d="M3.67,67.61H40.39v107.27c-8.46,2.41-14.69,10.19-14.69,19.41,0,11.14,9.06,20.2,20.2,20.2h9.51c1.76,10.4,10.8,18.36,21.7,18.36s19.94-7.96,21.7-18.36h22.7c1.76,10.4,10.8,18.36,21.7,18.36s19.94-7.96,21.7-18.36h15.02v-7.34h-15.02c-1.76-10.4-10.8-18.36-21.7-18.36s-19.94,7.96-21.7,18.36h-22.7c-1.76-10.4-10.8-18.36-21.7-18.36s-19.94,7.96-21.7,18.36h-9.51c-7.09,0-12.85-5.77-12.85-12.85s5.77-12.85,12.85-12.85H187.28c1.72,0,3.21-1.2,3.58-2.88l22.03-99.15c.51-2.29-1.24-4.47-3.58-4.47H47.74c0-.83,0-26.5,0-25.7,0-2.03-1.64-3.67-3.67-3.67H3.67c-2.03,0-3.67,1.64-3.67,3.67v14.69c0,2.03,1.64,3.67,3.67,3.67ZM143.21,196.13c8.1,0,14.69,6.59,14.69,14.69s-6.59,14.69-14.69,14.69-14.69-6.59-14.69-14.69,6.59-14.69,14.69-14.69Zm-66.1,0c8.1,0,14.69,6.59,14.69,14.69s-6.59,14.69-14.69,14.69-14.69-6.59-14.69-14.69,6.59-14.69,14.69-14.69Zm66.48-55.08h-43.75c.47-7.2,.95-15.7,1.44-25.7h45.18l-2.86,25.7Zm10.24-25.7h43.55l-5.71,25.7h-40.69l2.86-25.7Zm-11.06,33.05l-2.86,25.7h-43.51c.97-4.78,1.94-12.66,2.92-25.7h43.45ZM47.74,115.34h46.16c-.5,10.17-1,18.65-1.47,25.7H47.74v-25.7Zm53.89-7.34c.35-7.72,.7-16.27,1.06-25.7h47.44l-2.86,25.7h-45.65Zm-7.37,0H47.74v-25.7h47.59c-.36,9.48-.72,18.04-1.08,25.7Zm-46.52,40.39h44.18c-1.2,16.1-2.19,22.91-2.76,25.7H47.74v-25.7Zm136.59,25.7h-37.02l2.86-25.7h39.87l-5.71,25.7Zm14.69-66.1h-44.36l2.86-25.7h47.22l-5.71,25.7ZM7.34,52.92H40.39v7.34H7.34v-7.34Z"/>
    </g>
    <g id="Layer_3" data-name="Layer 3">
      <circle cx="191.78" cy="56.27" r="56.27"/>
    </g>
  </g>
</svg>