<?xml version="1.0" encoding="utf-8"?>
<!-- Generator: Adobe Illustrator 15.0.0, SVG Export Plug-In . SVG Version: 6.00 Build 0)  -->
<!DOCTYPE svg PUBLIC "-//W3C//DTD SVG 1.1//EN" "http://www.w3.org/Graphics/SVG/1.1/DTD/svg11.dtd">
<svg version="1.1" xmlns="http://www.w3.org/2000/svg" xmlns:xlink="http://www.w3.org/1999/xlink" x="0px" y="0px" width="46px"
	 height="46px" viewBox="-5.5 -5.5 46 46" enable-background="new -5.5 -5.5 46 46" xml:space="preserve">
<g id="Layer_1">
	<g id="Layer_2" display="none">
		<rect display="inline" fill="#ECECED" width="30" height="30"/>
	</g>
	<g>
		<path fill="#685F52" d="M29.491,19.98c-0.289-8.078-6.918-14.477-15-14.48H13.95v14.48H3.348v-1.877
			c-0.012-3.147-2.567-5.693-5.715-5.691h-0.925c-1.211-0.009-2.2,0.964-2.208,2.175s0.965,2.198,2.175,2.208
			c1.21,0.008,2.199-0.965,2.208-2.176c0.002-0.347-0.077-0.689-0.232-0.999c2.1,0.47,3.596,2.331,3.605,4.484v2.425
			c0.005,4.725,3.728,8.609,8.45,8.816l-2.829,2.832c-2.021-1.596-4.955-1.246-6.547,0.775c-1.592,2.021-1.245,4.953,0.777,6.547
			c2.023,1.594,4.955,1.246,6.547-0.777c1.333-1.689,1.333-4.078,0-5.77l3.594-3.594h5.36l3.595,3.594
			c-1.593,2.021-1.244,4.953,0.776,6.547c2.021,1.594,4.953,1.246,6.547-0.777c1.594-2.02,1.246-4.953-0.775-6.545
			c-1.691-1.334-4.079-1.334-5.771,0l-2.826-2.816h1.51c4.681,0,8.55-3.646,8.827-8.318c0,0,0-0.39,0-0.518
			C29.491,20.396,29.491,19.98,29.491,19.98z M15.038,6.604c7.248,0.294,13.056,6.102,13.35,13.349h-13.35V6.604z M-3.287,15.69
			c-0.603,0-1.091-0.489-1.091-1.093c0-0.602,0.488-1.091,1.091-1.091l0,0c0.604,0,1.091,0.491,1.091,1.093
			C-2.197,15.203-2.685,15.69-3.287,15.69z M8.553,35.805c0.008,1.969-1.581,3.568-3.549,3.576
			c-1.968,0.006-3.569-1.584-3.576-3.549c-0.006-1.971,1.582-3.572,3.549-3.576c0.76-0.004,1.503,0.236,2.115,0.686l-1.81,1.812
			c-0.091-0.025-0.186-0.039-0.28-0.039c-0.603,0-1.092,0.488-1.092,1.092S4.399,36.9,5.002,36.9s1.092-0.49,1.092-1.094
			c0-0.094-0.013-0.188-0.039-0.279l1.811-1.811C8.312,34.32,8.553,35.053,8.553,35.805z M24.829,32.271
			c1.967-0.008,3.568,1.58,3.574,3.549s-1.58,3.568-3.549,3.576c-1.97,0.01-3.569-1.582-3.576-3.549
			c-0.002-0.76,0.238-1.5,0.687-2.115l1.812,1.812c-0.023,0.09-0.037,0.186-0.037,0.279c0.002,0.602,0.492,1.09,1.095,1.088
			c0.603-0.004,1.09-0.492,1.088-1.098c-0.002-0.602-0.489-1.088-1.092-1.088c-0.097,0-0.188,0.016-0.28,0.039l-1.811-1.811
			C23.347,32.512,24.077,32.271,24.829,32.271z M20.66,28.264h-9.576c-4.058-0.006-7.422-3.143-7.716-7.188H28.38
			C28.088,25.123,24.718,28.26,20.66,28.264z"/>
	</g>
</g>
<g id="Layer_3">
	<circle fill="#F9CC10" cx="29.428" cy="5.5" r="11"/>
</g>
</svg>
