<?xml version="1.0" encoding="utf-8"?>
<!-- Generator: Adobe Illustrator 27.0.1, SVG Export Plug-In . SVG Version: 6.00 Build 0)  -->
<svg version="1.1" id="Layer_1" xmlns="http://www.w3.org/2000/svg" xmlns:xlink="http://www.w3.org/1999/xlink" x="0px" y="0px"
	 viewBox="0 0 30 30" style="enable-background:new 0 0 30 30;" xml:space="preserve">
<path d="M25.1,30h-6.6c-0.3,0-0.5-0.2-0.5-0.5v-9.3h-6.2v9.3c0,0.2-0.2,0.5-0.5,0.5H4.9c-0.2,0-0.5-0.2-0.5-0.5V14.4H0.7
	c-0.2,0-0.3-0.1-0.4-0.3c-0.1-0.2,0-0.4,0.1-0.5L14.7,0.1c0.2-0.2,0.4-0.2,0.6,0l14.3,13.5c0.1,0.1,0.2,0.3,0.1,0.5
	c-0.1,0.2-0.2,0.3-0.4,0.3h-3.7v15.1C25.6,29.8,25.4,30,25.1,30L25.1,30z M19,29.1h5.7V14c0-0.2,0.2-0.5,0.5-0.5h3.1L15,1.1
	L1.8,13.5h3.1c0.3,0,0.5,0.2,0.5,0.5v15.1H11v-9.3c0-0.3,0.2-0.5,0.5-0.5h7.2c0.2,0,0.5,0.2,0.5,0.5V29.1z"/>
</svg>
