<svg xmlns="http://www.w3.org/2000/svg" viewBox="76 282.3 32 32" style="enable-background:new 76 282.3 32 32" xml:space="preserve"><path fill="#fff" d="M95.1 298.3c0 1.7-1.4 3.1-3.1 3.1s-3.1-1.4-3.1-3.1 1.4-3.1 3.1-3.1 3.1 1.4 3.1 3.1z"/><path fill="#fff" d="M99.2 292.9c-.1-.4-.4-.8-.7-1.1-.3-.3-.7-.5-1.1-.7-.3-.1-.8-.3-1.7-.3-1 0-1.3-.1-3.7-.1-2.5 0-2.7 0-3.7.1-.9 0-1.4.2-1.7.3-.4.1-.8.4-1.1.7-.3.3-.5.7-.7 1.1-.1.3-.3.8-.3 1.7 0 1-.1 1.3-.1 3.7 0 2.5 0 2.7.1 3.7 0 .9.2 1.4.3 1.7.1.4.4.8.7 1.1.3.3.7.5 1.1.7.3.1.8.3 1.7.3 1 0 1.3.1 3.7.1 2.5 0 2.7 0 3.7-.1.9 0 1.4-.2 1.7-.3.8-.3 1.4-.9 1.7-1.7.1-.3.3-.8.3-1.7 0-1 .1-1.3.1-3.7 0-2.5 0-2.7-.1-3.7 0-1-.1-1.5-.2-1.8zM92 303c-2.6 0-4.7-2.1-4.7-4.7s2.1-4.7 4.7-4.7 4.7 2.1 4.7 4.7-2.1 4.7-4.7 4.7zm4.9-8.5c-.6 0-1.1-.5-1.1-1.1s.5-1.1 1.1-1.1 1.1.5 1.1 1.1c0 .6-.5 1.1-1.1 1.1z"/><path fill="#fff" d="M92 282.3c-8.8 0-16 7.2-16 16s7.2 16 16 16 16-7.2 16-16-7.2-16-16-16zm9.1 19.8c0 1-.2 1.6-.4 2.2-.5 1.2-1.5 2.2-2.7 2.7-.6.2-1.3.4-2.2.4-1 0-1.3.1-3.8.1s-2.8 0-3.8-.1c-1 0-1.6-.2-2.2-.4-.6-.2-1.2-.6-1.6-1.1-.5-.5-.8-1-1.1-1.6-.2-.6-.4-1.3-.4-2.2 0-1-.1-1.3-.1-3.8s0-2.8.1-3.8c0-1 .2-1.6.4-2.2.2-.6.6-1.2 1.1-1.6.5-.5 1-.8 1.6-1.1.6-.2 1.3-.4 2.2-.4 1 0 1.3-.1 3.8-.1s2.8 0 3.8.1c1 0 1.6.2 2.2.4.6.2 1.2.6 1.6 1.1.5.5.8 1 1.1 1.6.2.6.4 1.3.4 2.2 0 1 .1 1.3.1 3.8s0 2.8-.1 3.8z"/></svg>