<?xml version="1.0" encoding="utf-8"?>
<!-- Generator: Adobe Illustrator 15.0.0, SVG Export Plug-In . SVG Version: 6.00 Build 0)  -->
<!DOCTYPE svg PUBLIC "-//W3C//DTD SVG 1.1//EN" "http://www.w3.org/Graphics/SVG/1.1/DTD/svg11.dtd">
<svg version="1.1" id="Layer_1" xmlns="http://www.w3.org/2000/svg" xmlns:xlink="http://www.w3.org/1999/xlink" x="0px" y="0px"
	 width="32px" height="32px" viewBox="404.945 281.64 32 32" enable-background="new 404.945 281.64 32 32" xml:space="preserve">
<g>
	<circle fill="#3C3C3C" cx="420.943" cy="297.64" r="16"/>
	<g>
		<path fill="#FFFFFF" d="M420.923,293.26c-2.359,0-4.32,1.921-4.32,4.32c0,2.401,1.921,4.319,4.32,4.319
			c2.4,0,4.32-1.959,4.32-4.319C425.243,295.221,423.284,293.26,420.923,293.26z M420.923,300.342c-1.52,0-2.76-1.24-2.76-2.761
			s1.24-2.76,2.76-2.76c1.521,0,2.76,1.239,2.76,2.76S422.445,300.342,420.923,300.342L420.923,300.342z M425.445,292.141
			c0.559,0,0.998,0.439,0.998,1c0,0.56-0.439,1-0.998,1c-0.561,0-1-0.44-1-1C424.445,292.581,424.884,292.141,425.445,292.141
			L425.445,292.141z"/>
		<path fill="#FFFFFF" d="M427.964,290.621c-0.881-0.92-2.121-1.4-3.561-1.4h-6.96c-2.96,0-4.921,1.96-4.921,4.921v6.96
			c0,1.439,0.48,2.721,1.441,3.641c0.919,0.879,2.119,1.318,3.52,1.318h6.92c1.439,0,2.68-0.479,3.561-1.318
			c0.92-0.881,1.4-2.121,1.4-3.6v-6.961C429.323,292.701,428.843,291.501,427.964,290.621L427.964,290.621z M427.763,301.101
			c0,1.041-0.32,1.879-0.92,2.48c-0.6,0.6-1.439,0.879-2.479,0.879h-6.921c-1,0-1.88-0.318-2.48-0.879
			c-0.6-0.602-0.919-1.439-0.919-2.52v-6.961c0-1,0.319-1.881,0.919-2.48c0.561-0.56,1.44-0.88,2.48-0.88h6.96
			c1,0,1.881,0.32,2.48,0.92c0.559,0.6,0.92,1.44,0.92,2.44v7H427.763L427.763,301.101z"/>
	</g>
</g>
</svg>
