<?xml version="1.0" encoding="utf-8"?>
<!-- Generator: Adobe Illustrator 27.0.0, SVG Export Plug-In . SVG Version: 6.00 Build 0)  -->
<svg version="1.1" id="Camada_1" xmlns="http://www.w3.org/2000/svg" xmlns:xlink="http://www.w3.org/1999/xlink" x="0px" y="0px"
	 viewBox="0 0 22 22" style="enable-background:new 0 0 22 22;" xml:space="preserve">
<style type="text/css">
	.st0{stroke:#F9CC10;stroke-linecap:round;stroke-linejoin:round;stroke-miterlimit:10;}
</style>
<g>
	<path class="st0" d="M18.1,19.2H3.9c-0.9,0-1.7-0.8-1.7-1.9V9c0-1,0.7-1.9,1.7-1.9h14.1c0.9,0,1.7,0.8,1.7,1.9v8.4
		C19.7,18.4,19,19.2,18.1,19.2z"/>
	<g>
		<path class="st0" d="M9,19.2H5.7c-0.6,0-1.1,0-1.1,0v-5.7c0-0.6,0.5-1.1,1.1-1.1H9c0.6,0,1.1,0.5,1.1,1.1v5.7
			C10.1,19.2,9.6,19.2,9,19.2z"/>
		<path class="st0" d="M16.3,17h-2.6c-0.6,0-1.1-0.5-1.1-1.1v-2.3c0-0.6,0.5-1.1,1.1-1.1h2.6c0.6,0,1.1,0.5,1.1,1.1v2.3
			C17.4,16.5,16.9,17,16.3,17z"/>
	</g>
	<g>
		<path class="st0" d="M4.8,9.9h-3c-0.6,0-1.1-0.5-1.1-1.1l2.4-6l4,0c0,0-0.6,4.6-1.2,6C5.8,9.1,5.5,9.9,4.8,9.9z"/>
		<path class="st0" d="M9.5,9.9H6.9c-0.6,0-1.1-0.5-1.1-1.1l1.3-6l3.9,0l-0.1,6.3C10.9,9.7,10.2,9.9,9.5,9.9z"/>
		<path class="st0" d="M17.2,9.9h3c0.6,0,1.1-0.5,1.1-1.1l-2.4-6h-4c0,0,0.5,4.6,1.1,6C16.2,9.1,16.5,9.9,17.2,9.9z"/>
		<path class="st0" d="M12.5,9.9h2.6c0.6,0,1.1-0.5,1.1-1.1l-1.3-6H11l0.1,6.3C11.1,9.7,11.8,9.9,12.5,9.9z"/>
	</g>
</g>
</svg>
