<?xml version="1.0" encoding="utf-8"?>
<!-- Generator: Adobe Illustrator 27.0.1, SVG Export Plug-In . SVG Version: 6.00 Build 0)  -->
<svg version="1.1" id="Camada_1" xmlns="http://www.w3.org/2000/svg" xmlns:xlink="http://www.w3.org/1999/xlink" x="0px" y="0px"
	 viewBox="0 0 22 22" style="enable-background:new 0 0 22 22;" xml:space="preserve">
<path d="M21.2,5.3L21.2,5.3l-2-4C19.1,1.1,18.9,1,18.7,1H3.3C3.1,1,2.9,1.1,2.8,1.3l-2,4l0,0c0,0.1-0.1,0.2-0.1,0.3V8
	c0,1.2,0.7,2.2,1.6,2.7v10.3c0,0.3,0.3,0.6,0.6,0.6H19c0.3,0,0.6-0.3,0.6-0.6V10.7c1-0.5,1.6-1.5,1.6-2.7V5.6
	C21.3,5.5,21.3,5.4,21.2,5.3z M3.7,2.2h14.6L19.7,5C19.4,5,2.5,5,2.3,5L3.7,2.2z M11.6,6.2h3.6V8c0,1-0.8,1.8-1.8,1.8S11.6,9,11.6,8
	V6.2z M6.8,6.2h3.6V8c0,1-0.8,1.8-1.8,1.8S6.8,9,6.8,8V6.2z M1.9,6.2h3.6V8c0,1-0.8,1.8-1.8,1.8S1.9,9,1.9,8V6.2z M13.6,20.3H8.4
	v-3.8c0-1.4,1.2-2.6,2.6-2.6s2.6,1.2,2.6,2.6V20.3z M18.4,20.3h-3.6v-3.8c0-2.1-1.7-3.8-3.8-3.8s-3.8,1.7-3.8,3.8v3.8H3.6V11
	c0.1,0,0.1,0,0.2,0c1,0,1.9-0.5,2.4-1.2C6.7,10.5,7.6,11,8.6,11s1.9-0.5,2.4-1.2c0.6,0.7,1.4,1.2,2.4,1.2s1.9-0.5,2.4-1.2
	c0.6,0.7,1.4,1.2,2.4,1.2c0.1,0,0.1,0,0.2,0V20.3z M20.1,8c0,1-0.8,1.8-1.8,1.8c-1,0-1.8-0.8-1.8-1.8V6.2h3.6V8z"/>
</svg>
