<svg version="1.1" id="Layer_1" xmlns="http://www.w3.org/2000/svg" xmlns:xlink="http://www.w3.org/1999/xlink" x="0px" y="0px" width="256px" height="168px" viewBox="0 0 256 168" enable-background="new 0 0 256 168" xml:space="preserve">
  <path fill="#FFF" d="M240 .8H16C8 .8.8 7.2.8 16v136.8c0 8 6.4 15.2 15.2 15.2h224c8 0 15.2-6.4 15.2-15.2V16C254.4 7.2 248 .8 240 .8z"/>
  <path fill="#8E8E8E" d="M240.8 2.4c7.2 0 12.8 5.6 12.8 12.8v137.6c0 7.2-5.6 12.8-12.8 12.8H15.2c-7.2 0-12.8-5.6-12.8-12.8V15.2C2.4 8 8 2.4 15.2 2.4h225.6m0-2.4H15.2C7.2 0 0 6.4 0 15.2v137.6c0 8 6.4 15.2 15.2 15.2h225.6c8 0 15.2-6.4 15.2-15.2V15.2C256 6.4 249.6 0 240.8 0z"/>
  <g>
    <path fill="#010101" d="M73.84 149.47v-8.77c0-3.3-2.1-5.52-5.5-5.55a5.42 5.42 0 0 0-4.9 2.48 5.12 5.12 0 0 0-4.63-2.48c-1.48 0-2.95.44-4.09 2.07v-1.72h-3.04v13.97h3.07v-7.75c0-2.43 1.35-3.71 3.42-3.71 2.02 0 3.04 1.32 3.04 3.69v7.77h3.07v-7.75c0-2.43 1.4-3.71 3.42-3.71 2.08 0 3.07 1.32 3.07 3.69v7.77h3.07zm45.42-13.97h-4.97v-4.24h-3.07v4.24h-2.83v2.78h2.83v6.37c0 3.24 1.26 5.17 4.85 5.17a7.1 7.1 0 0 0 3.8-1.08l-.87-2.6c-.9.52-1.9.78-2.69.78-1.52 0-2.02-.93-2.02-2.33v-6.32h4.97v-2.77zm25.93-.35c-1.76 0-2.9.81-3.69 2.04v-1.7h-3v13.98h3.03v-7.83c0-2.31 1-3.6 2.98-3.6.61 0 1.26.1 1.9.35l.94-2.86a6.52 6.52 0 0 0-2.16-.38m-39.2 1.46a10.43 10.43 0 0 0-5.7-1.46c-3.54 0-5.82 1.7-5.82 4.47 0 2.28 1.7 3.69 4.82 4.12l1.44.2c1.66.24 2.45.68 2.45 1.46 0 1.09-1.1 1.7-3.18 1.7-2.1 0-3.63-.67-4.65-1.46l-1.43 2.37a10.08 10.08 0 0 0 6.05 1.8c4.03 0 6.37-1.9 6.37-4.55 0-2.45-1.84-3.74-4.88-4.18l-1.44-.21c-1.3-.17-2.36-.44-2.36-1.37 0-1.02.99-1.64 2.66-1.64 1.78 0 3.5.68 4.35 1.2l1.32-2.45zm81.43-1.46c-1.75 0-2.9.81-3.68 2.04v-1.7h-3.02v13.98h3.04v-7.83c0-2.31 1-3.6 2.98-3.6a5 5 0 0 1 1.9.35l.94-2.86a6.48 6.48 0 0 0-2.16-.38m-39.17 7.33c0 4.24 2.95 7.34 7.45 7.34a7.3 7.3 0 0 0 5.03-1.67l-1.46-2.45a6.14 6.14 0 0 1-3.65 1.26c-2.43-.03-4.21-1.78-4.21-4.48 0-2.68 1.78-4.44 4.21-4.47 1.31 0 2.51.44 3.65 1.26l1.46-2.45a7.32 7.32 0 0 0-5.03-1.67c-4.5 0-7.45 3.1-7.45 7.33m28.47 0v-6.98h-3.04v1.7a5.29 5.29 0 0 0-4.41-2.05c-3.92 0-6.98 3.07-6.98 7.33s3.06 7.34 6.98 7.34a5.3 5.3 0 0 0 4.41-2.04v1.69h3.04v-6.99zm-11.31 0c0-2.45 1.6-4.47 4.24-4.47 2.51 0 4.2 1.93 4.2 4.47 0 2.55-1.69 4.48-4.2 4.48-2.63 0-4.24-2.02-4.24-4.48m-36.68-7.33c-4.1 0-6.96 2.98-6.96 7.33 0 4.44 2.99 7.34 7.17 7.34a8.5 8.5 0 0 0 5.73-1.96l-1.5-2.25a6.64 6.64 0 0 1-4.06 1.46c-1.96 0-3.74-.9-4.18-3.42h10.38c.03-.38.06-.76.06-1.17-.03-4.35-2.72-7.33-6.64-7.33m-.06 2.72c1.96 0 3.21 1.22 3.54 3.39h-7.25c.32-2.02 1.55-3.4 3.71-3.4m76.26 4.62v-12.6h-3.04v7.32a5.29 5.29 0 0 0-4.41-2.05c-3.92 0-6.99 3.07-6.99 7.33s3.07 7.34 6.99 7.34a5.3 5.3 0 0 0 4.4-2.04v1.69h3.05v-6.99zm-11.32 0c0-2.45 1.61-4.47 4.24-4.47 2.51 0 4.21 1.93 4.21 4.47 0 2.55-1.7 4.48-4.21 4.48-2.63 0-4.24-2.02-4.24-4.48m-102.64 0v-6.98h-3.04v1.7a5.3 5.3 0 0 0-4.41-2.05c-3.92 0-6.99 3.07-6.99 7.33s3.07 7.34 6.99 7.34c1.98 0 3.44-.79 4.41-2.04v1.69h3.04v-6.99zm-11.31 0c0-2.45 1.6-4.47 4.23-4.47 2.52 0 4.21 1.93 4.21 4.47 0 2.55-1.7 4.48-4.2 4.48-2.64 0-4.24-2.02-4.24-4.48"/>
    <path fill="#F16522" d="M104.98 29.03h46.04v82.73h-46.04V29.03z"/>
    <path fill="#E41B24" d="M107.9 70.4A52.52 52.52 0 0 1 128 29.03a52.62 52.62 0 1 0 0 82.74 52.54 52.54 0 0 1-20.1-41.37"/>
    <path fill="#F89E1C" d="M213.13 70.4A52.61 52.61 0 0 1 128 111.75a52.52 52.52 0 0 0 20.1-41.37A52.52 52.52 0 0 0 128 29.03a52.61 52.61 0 0 1 85.13 41.37"/>
  </g>
</svg>
