<svg version="1.1" id="Layer_1" xmlns="http://www.w3.org/2000/svg" xmlns:xlink="http://www.w3.org/1999/xlink" x="0px" y="0px"
	 width="256px" height="168px" viewBox="0 0 256 168" enable-background="new 0 0 256 168" xml:space="preserve">
  <path fill="#FFF" d="M240 .8H16C8 .8 1.6 7.2 1.6 16v136c0 8 6.4 15.2 15.2 15.2h224c8 0 15.2-6.4 15.2-15.2V16c-1.6-8.8-8-15.2-16-15.2z"/>
  <path fill="#8E8E8E" d="M240.8 2.4c7.2 0 12.8 5.6 12.8 12.8v137.6c0 7.2-5.6 12.8-12.8 12.8H15.2c-7.2 0-12.8-5.6-12.8-12.8V15.2C2.4 8 8 2.4 15.2 2.4h225.6m0-2.4H15.2C6.4 0 0 6.4 0 15.2v137.6c0 8 6.4 15.2 15.2 15.2h225.6c8 0 15.2-6.4 15.2-15.2V15.2C256 6.4 249.6 0 240.8 0z"/>
<g id="g992" transform="translate(782.8699,645.7084)">
	<path id="path994" fill="#32BCAD" d="M-612.837-522.245c-5.836,0-11.324-2.273-15.45-6.398
		l-22.31-22.309c-1.566-1.57-4.297-1.566-5.862,0l-22.391,22.391c-4.127,4.123-9.615,6.396-15.451,6.396h-4.396l28.255,28.256
		c8.824,8.824,23.132,8.824,31.956,0l28.337-28.336H-612.837z"/>
</g>
<g id="g996" transform="translate(666.4241,758.5073)">
	<path id="path998" fill="#32BCAD" d="M-577.855-713.958c5.836,0,11.325,2.273,15.451,6.398
		l22.391,22.395c1.613,1.612,4.246,1.619,5.863-0.002l22.309-22.311c4.127-4.125,9.615-6.397,15.451-6.397h2.688l-28.336-28.336
		c-8.825-8.825-23.132-8.825-31.957,0l-28.254,28.254H-577.855z"/>
</g>
<g id="g1000" transform="translate(820.2131,724.8881)">
	<path id="path1002" fill="#32BCAD" d="M-624.055-656.819l-17.123-17.125
		c-0.379,0.151-0.786,0.246-1.217,0.246h-7.785c-4.025,0-7.965,1.632-10.809,4.478l-22.311,22.31
		c-2.086,2.087-4.83,3.133-7.57,3.133c-2.744,0-5.485-1.046-7.572-3.131l-22.393-22.393c-2.845-2.846-6.784-4.479-10.81-4.479
		h-9.573c-0.408,0-0.79-0.096-1.15-0.232l-17.191,17.192c-8.825,8.824-8.825,23.13,0,31.957l17.191,17.191
		c0.36-0.137,0.743-0.232,1.151-0.232h9.573c4.025,0,7.965-1.633,10.81-4.479l22.391-22.391c4.047-4.045,11.102-4.046,15.145,0.002
		l22.311,22.307c2.844,2.848,6.783,4.479,10.809,4.479h7.785c0.432,0,0.838,0.095,1.217,0.246l17.123-17.123
		C-615.231-633.689-615.231-647.996-624.055-656.819"/>
</g>
</svg>
