<svg xmlns="http://www.w3.org/2000/svg" width="18" height="18" viewBox="-3 -3 18 18" xml:space="preserve"><circle fill="#212121" cx="6" cy="6" r="9"/><g fill="#FFF"><path d="M9.105 7.836c-.371-.372-.891-.372-1.263 0l-.89.891c-.074.074-.148.111-.261.037-.186-.112-.408-.186-.593-.297-.854-.52-1.56-1.226-2.191-2.005-.298-.372-.595-.817-.78-1.263-.037-.111-.037-.148.037-.222l.854-.855c.408-.409.408-.892 0-1.3l-.706-.706a470.93 470.93 0 0 0-.707-.706c-.371-.371-.891-.371-1.263 0l-.89.891c-.298.26-.409.594-.446.967-.037.63.112 1.187.334 1.744C.785 6.2 1.454 7.24 2.234 8.169a11.586 11.586 0 0 0 3.898 3.045c.668.334 1.374.595 2.154.632.52.036 1.002-.111 1.374-.521a8.61 8.61 0 0 1 .815-.817c.408-.408.408-.892 0-1.263a43.704 43.704 0 0 0-1.37-1.409zM8.66 5.867l.928-.148a4.06 4.06 0 0 0-1.15-2.191A4 4 0 0 0 6.1 2.377l-.112.928a3.278 3.278 0 0 1 1.782.892c.445.446.779 1.039.89 1.67zM10.07 1.932A6.85 6.85 0 0 0 6.209 0l-.111.928A5.869 5.869 0 0 1 9.439 2.6c.854.854 1.447 1.967 1.633 3.155l.93-.147a6.938 6.938 0 0 0-1.932-3.676z"/></g></svg>