<svg xmlns="http://www.w3.org/2000/svg" width="17" height="17" viewBox="-0.5 -0.5 17 17" xml:space="preserve"><circle fill="#212121" cx="8" cy="8" r="8.5"/><path fill="#FFF" d="M12.632 11.538c0 .001-.001.001 0 0l-.001-.002-.456.453a2.39 2.39 0 0 1-2.265.646 8.019 8.019 0 0 1-2.317-1.036 10.797 10.797 0 0 1-1.826-1.476 10.746 10.746 0 0 1-1.366-1.652 8.472 8.472 0 0 1-1.026-2.076 2.4 2.4 0 0 1 .601-2.451l.533-.534a.38.38 0 0 1 .539-.002l.001.001 1.687 1.687a.38.38 0 0 1 0 .538v.002l-.99.989a.808.808 0 0 0-.084 1.051c.357.491.754.953 1.186 1.383a11.57 11.57 0 0 0 1.559 1.312.81.81 0 0 0 1.038-.091l.957-.972a.385.385 0 0 1 .539-.002v.002l1.689 1.69a.384.384 0 0 1 .002.54z"/></svg>