<svg xmlns="http://www.w3.org/2000/svg" viewBox="-404 282.3 32 32" style="enable-background:new -404 282.3 32 32" xml:space="preserve"><g fill="#fff"><path d="M-379.7 303.4c-1-1-2.4-1-3.4 0l-2.4 2.4c-.2.2-.4.3-.7.1-.5-.3-1.1-.5-1.6-.8-2.3-1.4-4.2-3.3-5.9-5.4-.8-1-1.6-2.2-2.1-3.4-.1-.3-.1-.4.1-.6l2.3-2.3c1.1-1.1 1.1-2.4 0-3.5l-1.9-1.9-1.9-1.9c-1-1-2.4-1-3.4 0l-2.4 2.4c-.8.7-1.1 1.6-1.2 2.6-.1 1.7.3 3.2.9 4.7 1.2 3.2 3 6 5.1 8.5 2.9 3.5 6.4 6.2 10.5 8.2 1.8.9 3.7 1.6 5.8 1.7 1.4.1 2.7-.3 3.7-1.4.7-.8 1.4-1.5 2.2-2.2 1.1-1.1 1.1-2.4 0-3.4-1.1-1.2-2.4-2.5-3.7-3.8zM-380.9 298.1l2.5-.4c-.4-2.3-1.5-4.3-3.1-5.9-1.7-1.7-3.9-2.8-6.3-3.1l-.3 2.5c1.8.3 3.5 1.1 4.8 2.4 1.2 1.2 2.1 2.8 2.4 4.5zM-377.1 287.5c-2.8-2.8-6.4-4.6-10.4-5.2l-.3 2.5c3.4.5 6.5 2 9 4.5 2.3 2.3 3.9 5.3 4.4 8.5l2.5-.4c-.7-3.8-2.5-7.2-5.2-9.9z"/></g></svg>