<?xml version="1.0" encoding="utf-8"?>
<!-- Generator: Adobe Illustrator 15.0.0, SVG Export Plug-In . SVG Version: 6.00 Build 0)  -->
<!DOCTYPE svg PUBLIC "-//W3C//DTD SVG 1.1//EN" "http://www.w3.org/Graphics/SVG/1.1/DTD/svg11.dtd">
<svg version="1.1" id="Layer_1" xmlns="http://www.w3.org/2000/svg" xmlns:xlink="http://www.w3.org/1999/xlink" x="0px" y="0px"
	 width="16px" height="16px" viewBox="0 0 16 16" enable-background="new 0 0 16 16" xml:space="preserve">
<g>
	<g>
		<path fill="#685F52" d="M12.162,10.584c-0.521-0.518-1.176-0.518-1.694,0c-0.396,0.394-0.792,0.785-1.183,1.186
			c-0.105,0.109-0.195,0.134-0.325,0.06c-0.257-0.14-0.531-0.253-0.777-0.405C7.035,10.701,6.072,9.772,5.22,8.728
			C4.798,8.207,4.421,7.651,4.158,7.025c-0.053-0.126-0.043-0.21,0.061-0.312C4.615,6.33,5,5.938,5.39,5.545
			c0.543-0.547,0.543-1.186-0.003-1.734c-0.31-0.312-0.62-0.619-0.929-0.932C4.138,2.559,3.822,2.235,3.5,1.92
			C2.977,1.41,2.324,1.41,1.805,1.922C1.406,2.315,1.023,2.717,0.617,3.104C0.242,3.461,0.051,3.897,0.011,4.406
			C-0.051,5.235,0.152,6.018,0.437,6.78c0.586,1.579,1.479,2.979,2.561,4.266c1.462,1.737,3.207,3.113,5.248,4.104
			c0.918,0.446,1.873,0.789,2.907,0.847c0.714,0.039,1.331-0.141,1.827-0.696c0.34-0.38,0.725-0.726,1.082-1.088
			c0.533-0.54,0.536-1.191,0.007-1.726C13.434,11.85,12.797,11.217,12.162,10.584L12.162,10.584z"/>
	</g>
	<path fill="#685F52" d="M11.525,7.931l1.229-0.21c-0.193-1.129-0.728-2.15-1.534-2.963c-0.855-0.855-1.939-1.396-3.131-1.562
		L7.916,4.432c0.924,0.13,1.763,0.546,2.426,1.207C10.966,6.266,11.376,7.058,11.525,7.931L11.525,7.931z"/>
	<path fill="#685F52" d="M13.447,2.59C12.027,1.172,10.233,0.275,8.252,0L8.08,1.234c1.711,0.24,3.263,1.016,4.488,2.236
		c1.162,1.162,1.926,2.631,2.201,4.246l1.229-0.209C15.674,5.637,14.793,3.938,13.447,2.59L13.447,2.59z"/>
</g>
</svg>
