<?xml version="1.0" encoding="utf-8"?>
<!-- Generator: Adobe Illustrator 27.0.1, SVG Export Plug-In . SVG Version: 6.00 Build 0)  -->
<svg version="1.1" id="Layer_1" xmlns="http://www.w3.org/2000/svg" xmlns:xlink="http://www.w3.org/1999/xlink" x="0px" y="0px"
	 viewBox="0 0 16 16" style="enable-background:new 0 0 16 16;" xml:space="preserve">
<g>
	<path d="M12.6,10.5c-0.9-0.9-2.2-0.9-3.1,0c0,0,0,0,0,0C9,11,8,11,7.5,10.5L5.4,8.4C5.1,8.1,5,7.8,5,7.4c0-0.4,0.2-0.8,0.4-1
		c0.9-0.9,0.9-2.2,0-3.1L4.9,2.8C4,1.9,2.6,1.9,1.8,2.8C0.6,4-0.1,5.6-0.1,7.4c0,1.8,0.7,3.4,1.9,4.6l2.1,2.1
		C5.1,15.3,6.7,16,8.5,16c1.8,0,3.4-0.7,4.6-1.9c0.9-0.9,0.9-2.2,0-3.1L12.6,10.5z M12.1,13.1c-1,1-2.2,1.5-3.6,1.5
		c-1.4,0-2.6-0.5-3.6-1.5L2.8,11c-1-1-1.5-2.2-1.5-3.6c0-1.4,0.5-2.6,1.5-3.6C3,3.6,3.1,3.6,3.3,3.6c0.2,0,0.4,0.1,0.5,0.2l0.5,0.5
		c0.3,0.3,0.3,0.7,0,1C3.8,5.9,3.5,6.6,3.5,7.4s0.3,1.5,0.9,2.1l2.1,2.1c1.1,1.1,3,1.1,4.1,0c0.3-0.3,0.7-0.3,1,0l0.5,0.5
		c0.1,0.1,0.2,0.3,0.2,0.5S12.2,12.9,12.1,13.1z"/>
	<path d="M14.1,3.4c0.2-0.4,0.4-0.8,0.4-1.2c0-1.2-1-2.2-2.2-2.2s-2.2,1-2.2,2.2c0,0.5,0.1,0.9,0.4,1.2C9.4,4,8.6,5.2,8.6,6.5
		c0,1.2,1,2.2,2.2,2.2h2.9c1.2,0,2.2-1,2.2-2.2C15.9,5.2,15.1,4,14.1,3.4z M12.2,1.4c0.4,0,0.7,0.3,0.7,0.7s-0.3,0.7-0.7,0.7
		s-0.7-0.3-0.7-0.7S11.8,1.4,12.2,1.4z M13.7,7.3h-2.9c-0.4,0-0.7-0.3-0.7-0.7c0-1.2,1-2.2,2.2-2.2s2.2,1,2.2,2.2
		C14.4,6.9,14.1,7.3,13.7,7.3z"/>
</g>
</svg>
