<?xml version="1.0" encoding="utf-8"?>
<!-- Generator: Adobe Illustrator 27.0.1, SVG Export Plug-In . SVG Version: 6.00 Build 0)  -->
<svg version="1.1" id="Layer_1" xmlns="http://www.w3.org/2000/svg" xmlns:xlink="http://www.w3.org/1999/xlink" x="0px" y="0px"
	 viewBox="0 0 30 30" style="enable-background:new 0 0 30 30;" xml:space="preserve">
<style type="text/css">
	.st0{fill-rule:evenodd;clip-rule:evenodd;}
</style>
<g id="Layer_2">
</g>
<g>
	<path d="M9.5,14.3h8.2c0.4,0,0.7-0.3,0.7-0.7S18.1,13,17.7,13H9.5c-0.4,0-0.7,0.3-0.7,0.7S9.2,14.3,9.5,14.3L9.5,14.3z M9.5,10.9
		h10.9c0.4,0,0.7-0.3,0.7-0.7s-0.3-0.7-0.7-0.7H9.5c-0.4,0-0.7,0.3-0.7,0.7S9.2,10.9,9.5,10.9L9.5,10.9z M9.5,21.1h8.2
		c0.4,0,0.7-0.3,0.7-0.7c0-0.4-0.3-0.7-0.7-0.7H9.5c-0.4,0-0.7,0.3-0.7,0.7C8.9,20.8,9.2,21.1,9.5,21.1L9.5,21.1z M9.5,17.7h10.9
		c0.4,0,0.7-0.3,0.7-0.7c0-0.4-0.3-0.7-0.7-0.7H9.5c-0.4,0-0.7,0.3-0.7,0.7C8.9,17.4,9.2,17.7,9.5,17.7L9.5,17.7z M25.2,3.4h-2.7
		c-0.4,0-0.7,0.3-0.7,0.7c0,0.4,0.3,0.7,0.7,0.7h2v23.9H5.5V4.8h2c0.4,0,0.7-0.3,0.7-0.7c0-0.4-0.3-0.7-0.7-0.7H4.8
		c-0.4,0-0.7,0.3-0.7,0.7v25.2c0,0.4,0.3,0.7,0.7,0.7h20.5c0.4,0,0.7-0.3,0.7-0.7V4.1C25.9,3.7,25.6,3.4,25.2,3.4L25.2,3.4z"/>
	<path class="st0" d="M19.8,2H17V0.7C17,0.3,16.7,0,16.4,0h-2.7C13.3,0,13,0.3,13,0.7V2h-2.7C9.8,2,9.5,2.4,9.5,2.7v2.7
		c0,0.4,0.3,0.7,0.7,0.7h9.5c0.4,0,0.7-0.3,0.7-0.7V2.7C20.5,2.4,20.1,2,19.8,2L19.8,2z M19.1,4.8h-8.2V3.4h3.4v-2h1.4v2h3.4
		L19.1,4.8L19.1,4.8z"/>
</g>
</svg>
