<?xml version="1.0" encoding="utf-8"?>
<!-- Generator: Adobe Illustrator 15.0.0, SVG Export Plug-In . SVG Version: 6.00 Build 0)  -->
<!DOCTYPE svg PUBLIC "-//W3C//DTD SVG 1.1//EN" "http://www.w3.org/Graphics/SVG/1.1/DTD/svg11.dtd">
<svg version="1.1" id="Layer_1" xmlns="http://www.w3.org/2000/svg" xmlns:xlink="http://www.w3.org/1999/xlink" x="0px" y="0px"
	 width="30px" height="30px" viewBox="0 0 30 30" enable-background="new 0 0 30 30" xml:space="preserve">
<g id="Layer_2">
</g>
<g>
	<path fill="#685F52" d="M9.543,14.319h8.184c0.376,0,0.683-0.307,0.683-0.683s-0.307-0.683-0.683-0.683H9.543
		c-0.376,0-0.679,0.307-0.679,0.683S9.167,14.319,9.543,14.319L9.543,14.319z M9.543,10.91h10.91c0.376,0,0.683-0.307,0.683-0.683
		s-0.307-0.683-0.683-0.683H9.543c-0.376,0-0.679,0.307-0.679,0.683S9.167,10.91,9.543,10.91L9.543,10.91z M9.543,21.139h8.184
		c0.376,0,0.683-0.307,0.683-0.684c0-0.375-0.307-0.683-0.683-0.683H9.543c-0.376,0-0.679,0.308-0.679,0.683
		C8.864,20.832,9.167,21.139,9.543,21.139L9.543,21.139z M9.543,17.729h10.91c0.376,0,0.683-0.307,0.683-0.683
		c0-0.375-0.307-0.683-0.683-0.683H9.543c-0.376,0-0.679,0.308-0.679,0.683C8.864,17.422,9.167,17.729,9.543,17.729L9.543,17.729z
		 M25.228,3.409h-2.727c-0.377,0-0.683,0.306-0.683,0.683c0,0.375,0.306,0.682,0.683,0.682h2.044v23.866H5.455V4.774h2.044
		c0.376,0,0.683-0.307,0.683-0.682c0-0.377-0.307-0.683-0.683-0.683H4.772c-0.376,0-0.683,0.306-0.683,0.683v25.226
		C4.09,29.697,4.396,30,4.772,30h20.455c0.376,0,0.683-0.303,0.683-0.682V4.092C25.91,3.715,25.604,3.409,25.228,3.409L25.228,3.409
		z M25.228,3.409"/>
	<path fill-rule="evenodd" clip-rule="evenodd" fill="#685F52" d="M19.771,2.044h-2.727V0.683C17.044,0.306,16.737,0,16.361,0
		h-2.727c-0.376,0-0.683,0.306-0.683,0.683v1.361h-2.727c-0.376,0-0.683,0.307-0.683,0.683v2.727c0,0.38,0.307,0.683,0.683,0.683
		h9.545c0.376,0,0.683-0.303,0.683-0.683V2.727C20.453,2.351,20.146,2.044,19.771,2.044L19.771,2.044z M19.092,4.774h-8.184V3.409
		h3.409V1.365h1.365v2.044h3.409V4.774z M19.092,4.774"/>
</g>
</svg>
