<?xml version="1.0" encoding="utf-8"?>
<!-- Generator: Adobe Illustrator 27.0.1, SVG Export Plug-In . SVG Version: 6.00 Build 0)  -->
<svg version="1.1" id="Layer_1" xmlns="http://www.w3.org/2000/svg" xmlns:xlink="http://www.w3.org/1999/xlink" x="0px" y="0px"
	 viewBox="0 0 16 16" style="enable-background:new 0 0 16 16;" xml:space="preserve">
<g>
	<path d="M12.7,10.4c-0.8-0.8-2.2-0.8-3.1,0c-0.3,0.3-0.6,0.4-1,0.4c-0.4,0-0.8-0.1-1-0.4l-2-2c-0.3-0.3-0.4-0.6-0.4-1
		c0-0.4,0.2-0.7,0.4-1c0.8-0.8,0.8-2.2,0-3.1L5,2.8C4.2,1.9,2.8,1.9,2,2.8C0.7,4,0.1,5.6,0.1,7.4c0,1.7,0.7,3.4,1.9,4.6l2,2
		c1.2,1.2,2.9,1.9,4.6,1.9c1.7,0,3.4-0.7,4.6-1.9c0.8-0.8,0.8-2.2,0-3.1L12.7,10.4z"/>
	<path d="M14.2,3.4c0.2-0.3,0.4-0.8,0.4-1.2c0-1.2-1-2.2-2.2-2.2c-1.2,0-2.2,1-2.2,2.2c0,0.4,0.1,0.9,0.4,1.2C9.5,4,8.8,5.2,8.8,6.5
		c0,1.2,1,2.2,2.2,2.2h2.9c1.2,0,2.2-1,2.2-2.2C16,5.2,15.3,4,14.2,3.4z M12.4,2.9c-0.4,0-0.7-0.3-0.7-0.7c0-0.4,0.3-0.7,0.7-0.7
		c0.4,0,0.7,0.3,0.7,0.7C13.1,2.6,12.8,2.9,12.4,2.9z"/>
</g>
</svg>
