<?xml version="1.0" encoding="utf-8"?>
<!-- Generator: Adobe Illustrator 15.0.0, SVG Export Plug-In . SVG Version: 6.00 Build 0)  -->
<!DOCTYPE svg PUBLIC "-//W3C//DTD SVG 1.1//EN" "http://www.w3.org/Graphics/SVG/1.1/DTD/svg11.dtd">
<svg version="1.1" id="Layer_1" xmlns="http://www.w3.org/2000/svg" xmlns:xlink="http://www.w3.org/1999/xlink" x="0px" y="0px"
	 width="16px" height="16px" viewBox="0 0 16 16" enable-background="new 0 0 16 16" xml:space="preserve">
<g>
	<path fill="#685F52" d="M2.652,2.338c0.114,0,0.23,0.097,0.289,0.154c0.207,0.203,0.412,0.409,0.617,0.616l0.332,0.333l0.546,0.548
		L4.82,4.375c0.234,0.235,0.235,0.371,0.002,0.606L4.618,5.188c-0.317,0.32-0.632,0.638-0.961,0.956
		C3.325,6.471,3.239,6.905,3.42,7.334c0.263,0.627,0.638,1.23,1.18,1.9c0.994,1.217,2.026,2.155,3.162,2.871
		c0.168,0.104,0.348,0.193,0.528,0.281c0.096,0.047,0.192,0.094,0.273,0.138c0.171,0.099,0.351,0.148,0.531,0.148
		c0.197,0,0.489-0.061,0.763-0.345c0.295-0.302,0.594-0.599,0.892-0.896l0.284-0.282c0.058-0.058,0.171-0.154,0.28-0.154
		c0.111,0,0.227,0.098,0.284,0.154l0.474,0.473c0.478,0.475,0.954,0.95,1.429,1.426c0.22,0.223,0.218,0.374-0.007,0.603
		c-0.124,0.125-0.251,0.248-0.378,0.371c-0.242,0.235-0.493,0.479-0.731,0.745c-0.272,0.305-0.586,0.435-1.049,0.435
		c-0.046,0-0.092-0.001-0.138-0.004c-0.786-0.044-1.612-0.288-2.602-0.768c-1.912-0.929-3.589-2.24-4.985-3.899
		C2.492,9.201,1.7,7.883,1.186,6.5C0.881,5.684,0.765,5.057,0.808,4.469c0.026-0.326,0.14-0.576,0.361-0.786
		C1.419,3.444,1.662,3.2,1.904,2.956c0.153-0.155,0.307-0.31,0.463-0.464C2.425,2.434,2.54,2.338,2.652,2.338L2.652,2.338
		 M2.652,1.538c-0.293,0-0.587,0.128-0.847,0.384C1.406,2.315,1.023,2.717,0.617,3.104C0.242,3.461,0.051,3.897,0.011,4.406
		C-0.051,5.235,0.152,6.018,0.437,6.78c0.586,1.579,1.479,2.979,2.561,4.266c1.462,1.737,3.207,3.113,5.248,4.104
		c0.918,0.445,1.873,0.789,2.906,0.847c0.062,0.003,0.123,0.005,0.183,0.005c0.638,0,1.192-0.194,1.646-0.701
		c0.34-0.38,0.725-0.726,1.082-1.088c0.533-0.54,0.535-1.191,0.006-1.727c-0.635-0.637-1.271-1.27-1.906-1.902
		c-0.261-0.259-0.555-0.389-0.849-0.389c-0.293,0-0.587,0.13-0.846,0.389c-0.396,0.395-0.792,0.785-1.183,1.186
		c-0.065,0.067-0.124,0.103-0.19,0.103c-0.041,0-0.085-0.014-0.135-0.042c-0.257-0.141-0.531-0.253-0.777-0.405
		C7.035,10.701,6.072,9.771,5.22,8.729C4.798,8.207,4.421,7.651,4.158,7.025c-0.053-0.126-0.043-0.21,0.061-0.312
		C4.615,6.33,5,5.938,5.39,5.545c0.543-0.547,0.543-1.186-0.003-1.734c-0.31-0.312-0.62-0.619-0.929-0.932
		C4.138,2.559,3.822,2.235,3.5,1.92C3.239,1.666,2.945,1.538,2.652,1.538L2.652,1.538z"/>
</g>
<path fill="#685F52" d="M11.525,7.931l1.229-0.21c-0.193-1.129-0.729-2.15-1.533-2.963c-0.855-0.855-1.939-1.396-3.132-1.562
	L7.916,4.432c0.924,0.13,1.764,0.546,2.426,1.207C10.966,6.266,11.376,7.058,11.525,7.931L11.525,7.931z"/>
<path fill="#685F52" d="M13.447,2.59C12.027,1.172,10.232,0.275,8.252,0L8.08,1.234c1.711,0.24,3.263,1.016,4.488,2.236
	c1.162,1.162,1.926,2.631,2.201,4.246l1.229-0.209C15.674,5.637,14.793,3.938,13.447,2.59L13.447,2.59z"/>
</svg>
