<?xml version="1.0" encoding="utf-8"?>
<!-- Generator: Adobe Illustrator 27.0.1, SVG Export Plug-In . SVG Version: 6.00 Build 0)  -->
<svg version="1.1" id="Layer_1" xmlns="http://www.w3.org/2000/svg" xmlns:xlink="http://www.w3.org/1999/xlink" x="0px" y="0px"
	 viewBox="0 0 30 30" style="enable-background:new 0 0 30 30;" xml:space="preserve">
<g id="Layer_2">
</g>
<g>
	<path d="M14.9,16.1c4.3,0,7.8-3.5,7.8-7.8s-3.5-7.8-7.8-7.8S7.1,4,7.1,8.3S10.6,16.1,14.9,16.1z M14.9,2.2c3.4,0,6.1,2.7,6.1,6.1
		s-2.7,6.1-6.1,6.1s-6.1-2.7-6.1-6.1S11.6,2.2,14.9,2.2z"/>
	<path d="M20.8,18H9.2c-3,0-5.5,2.5-5.5,5.5v3.5c0,1.8,1.4,3.2,3.2,3.2h16.2c1.8,0,3.2-1.4,3.2-3.2v-3.5C26.3,20.4,23.8,18,20.8,18z
		 M24.6,26.9c0,0.8-0.6,1.4-1.4,1.4H6.9c-0.8,0-1.4-0.6-1.4-1.4v-3.5c0-2.1,1.7-3.8,3.8-3.8h11.6c2.1,0,3.8,1.7,3.8,3.8V26.9z"/>
</g>
</svg>
