<svg version="1.1" id="Layer_1" xmlns="http://www.w3.org/2000/svg" xmlns:xlink="http://www.w3.org/1999/xlink" x="0px" y="0px" width="256px" height="168px" viewBox="0 0 256 168" enable-background="new 0 0 256 168" xml:space="preserve">
  <path fill="#FFF" d="M240 .8H16C8 .8.8 7.2.8 16v136.8c0 8 6.4 15.2 15.2 15.2h224c8 0 15.2-6.4 15.2-15.2V16C254.4 7.2 248 .8 240 .8z"/>
  <path fill="#8E8E8E" d="M240.8 2.4c7.2 0 12.8 5.6 12.8 12.8v137.6c0 7.2-5.6 12.8-12.8 12.8H15.2c-7.2 0-12.8-5.6-12.8-12.8V15.2C2.4 8 8 2.4 15.2 2.4h225.6m0-2.4H15.2C7.2 0 0 6.4 0 15.2v137.6c0 8 6.4 15.2 15.2 15.2h225.6c8 0 15.2-6.4 15.2-15.2V15.2C256 6.4 249.6 0 240.8 0z"/>
  <g>
    <path fill="#005098" d="M95.2 116l10.4-64h17.6L112 116zM175.2 53.6c-3.2-1.6-8.8-2.4-15.2-2.4-16.8 0-28.8 8.8-29.6 20.8 0 8.8 8.8 14.4 15.2 17.6 6.4 3.2 8.8 4.8 8.8 8 0 4-5.6 6.4-10.4 6.4-7.2 0-10.4-.8-16-3.2l-2.4-.8-2.4 14.4c4 1.6 11.2 3.2 19.2 3.2 18.4 0 30.4-8.8 30.4-21.6 0-7.2-4.8-12.8-14.4-17.6-6.4-3.2-9.6-4.8-9.6-8 0-2.4 3.2-5.6 9.6-5.6 5.6 0 9.6.8 12.8 2.4l1.6.8 2.4-14.4zM219.2 52.8h-13.6c-4 0-7.2.8-8.8 5.6l-25.6 58.4h18.4s3.2-8 4-9.6H216c.8 2.4 2.4 9.6 2.4 9.6h16l-15.2-64zm-20.8 40.8c1.6-4 7.2-17.6 7.2-17.6s1.6-4 2.4-6.4l.8 5.6s3.2 15.2 4 18.4h-14.4zM80.8 52.8L64 96l-1.6-8.8c-3.2-10.4-12.8-20.8-24-26.4L53.6 116H72l27.2-63.2H80.8z"/>
    <path fill="#F6A500" d="M48 52H20v1.6c21.6 5.6 36 17.6 42.4 33.6L56 57.6c-1.6-4-4.8-4.8-8-5.6z"/>
  </g>
</svg>
