<svg xmlns="http://www.w3.org/2000/svg" viewBox="-49 141 512 512" style="enable-background:new -49 141 512 512" xml:space="preserve"><path fill="#fff" d="M391.164 212.836C344.84 166.511 283.249 141 217.737 141S90.633 166.511 44.308 212.836s-71.835 107.915-71.835 173.427c0 41.499 10.505 82.279 30.445 118.402L-49 653l148.333-51.917c36.124 19.938 76.904 30.444 118.403 30.444 65.512 0 127.104-25.512 173.427-71.836C437.488 513.367 463 451.776 463 386.263s-25.512-127.103-71.836-173.427zM217.737 601.495c-38.497 0-76.282-10.296-109.267-29.776l-6.009-3.549L-.048 604.047 35.83 501.539l-3.549-6.009c-19.48-32.986-29.776-70.769-29.776-109.267 0-118.678 96.553-215.231 215.231-215.231s215.231 96.553 215.231 215.231c.001 118.68-96.552 215.232-215.23 215.232z"/><path fill="#fff" d="m336.077 441.391-49.169-14.128c-6.464-1.84-13.44-.032-18.16 4.784l-12.032 12.256c-5.056 5.168-12.752 6.832-19.472 4.128-23.28-9.424-72.225-52.945-84.721-74.705-3.6-6.288-3.008-14.128 1.424-19.856l10.496-13.584a18.3 18.3 0 0 0 2.256-18.624l-20.688-46.801c-4.96-11.216-19.28-14.464-28.641-6.56-13.728 11.616-30.016 29.248-32 48.801-3.488 34.464 11.296 77.905 67.185 130.066 64.561 60.288 116.29 68.24 149.938 60.08 19.088-4.624 34.336-23.168 43.985-38.352 6.576-10.369 1.376-24.129-10.401-27.505z"/></svg>