<?xml version="1.0" encoding="utf-8"?>
<!-- Generator: Adobe Illustrator 15.0.0, SVG Export Plug-In . SVG Version: 6.00 Build 0)  -->
<!DOCTYPE svg PUBLIC "-//W3C//DTD SVG 1.1//EN" "http://www.w3.org/Graphics/SVG/1.1/DTD/svg11.dtd">
<svg version="1.1" id="Layer_1" xmlns="http://www.w3.org/2000/svg" xmlns:xlink="http://www.w3.org/1999/xlink" x="0px" y="0px"
	 width="28px" height="28px" viewBox="0 0 28 28" enable-background="new 0 0 28 28" xml:space="preserve">
<g id="Layer_2">
</g>
<g>
	<g>
		<path id="WhatsApp" fill="#00BFA5" d="M28,13.627c0,7.528-6.161,13.626-13.752,13.626c-2.395,0-4.666-0.622-6.657-1.71L0,28
			l2.489-7.311c-1.245-2.055-1.96-4.481-1.96-7.031C0.498,6.098,6.657,0,14.248,0S28,6.098,28,13.627z M14.248,2.178
			c-6.377,0-11.541,5.133-11.541,11.449c0,2.52,0.809,4.821,2.209,6.721l-1.432,4.262l4.449-1.401
			c1.835,1.214,4.013,1.898,6.347,1.898c6.346,0,11.541-5.134,11.541-11.479C25.821,7.28,20.626,2.178,14.248,2.178z M21.187,16.769
			c-0.093-0.123-0.312-0.217-0.653-0.403c-0.342-0.157-1.991-0.966-2.302-1.09c-0.312-0.123-0.528-0.154-0.747,0.156
			c-0.219,0.342-0.871,1.088-1.058,1.307s-0.405,0.249-0.716,0.092c-0.342-0.154-1.431-0.528-2.706-1.647
			c-0.996-0.872-1.681-1.992-1.867-2.303c-0.187-0.342-0.031-0.529,0.155-0.685c0.155-0.155,0.343-0.404,0.498-0.591
			s0.218-0.343,0.342-0.561c0.125-0.218,0.062-0.403-0.03-0.591c-0.094-0.155-0.747-1.804-1.026-2.488
			c-0.28-0.654-0.561-0.561-0.747-0.561c-0.188,0-0.436-0.031-0.653-0.031S9.084,7.467,8.773,7.777
			C8.462,8.12,7.591,8.929,7.591,10.578c0,1.648,1.213,3.235,1.369,3.453c0.156,0.219,2.333,3.701,5.756,5.041
			c3.422,1.336,3.422,0.9,4.044,0.839c0.622-0.063,1.992-0.808,2.271-1.587C21.28,17.578,21.28,16.924,21.187,16.769z"/>
	</g>
</g>
</svg>
