<?xml version="1.0" encoding="utf-8"?>
<!-- Generator: Adobe Illustrator 27.0.1, SVG Export Plug-In . SVG Version: 6.00 Build 0)  -->
<svg version="1.1" id="Layer_1" xmlns="http://www.w3.org/2000/svg" xmlns:xlink="http://www.w3.org/1999/xlink" x="0px" y="0px"
	 viewBox="0 0 30 30" style="enable-background:new 0 0 30 30;" xml:space="preserve">
<g id="Layer_2">
</g>
<path d="M21.7,2.4c4,0,7.1,3.1,7.1,7.1c0,5.2-4.9,9.6-12.4,16.4l-0.1,0L15,27.2l-1.5-1.3C6.1,19.1,1.2,14.7,1.2,9.5
	c0-4,3.1-7.1,7.1-7.1c2.2,0,4.4,1,5.9,2.7l0.9,1l0.9-1C17.3,3.4,19.5,2.4,21.7,2.4 M21.7,1.2c-2.6,0-5.1,1.2-6.7,3.1
	c-1.6-1.9-4.1-3.1-6.7-3.1C3.6,1.2,0,4.9,0,9.5c0,5.7,5.1,10.3,12.8,17.3l2.2,2h0l2.2-2C24.9,19.8,30,15.2,30,9.5
	C30,4.9,26.4,1.2,21.7,1.2L21.7,1.2z"/>
</svg>
