<svg xmlns="http://www.w3.org/2000/svg" viewBox="-404 282.3 32 32" style="enable-background:new -404 282.3 32 32" xml:space="preserve"><g fill="#fff"><path d="M-388 282.3c-8.8 0-16 7.2-16 16s7.2 16 16 16 16-7.2 16-16c0-8.9-7.2-16-16-16zm10.2 16.8c0 1.8-.2 3.5-.2 3.5s-.2 1.5-.8 2.2c-.8.9-1.7.9-2.1.9-2.9.2-7.2.2-7.2.2s-5.3-.1-7-.2c-.5-.1-1.5-.1-2.3-.9-.6-.7-.8-2.2-.8-2.2s-.2-1.8-.2-3.5v-1.7c0-1.8.2-3.5.2-3.5s.2-1.5.8-2.2c.8-.9 1.7-.9 2.1-.9 2.9-.2 7.2-.2 7.2-.2s4.3 0 7.2.2c.4 0 1.3.1 2.1.9.6.7.8 2.2.8 2.2s.2 1.8.2 3.5v1.7z"/><path d="M-390.6 294.4v7.7l6.4-3.8z"/></g></svg>