<?xml version="1.0" encoding="utf-8"?>
<!-- Generator: Adobe Illustrator 27.0.1, SVG Export Plug-In . SVG Version: 6.00 Build 0)  -->
<svg version="1.1" id="Layer_1" xmlns="http://www.w3.org/2000/svg" xmlns:xlink="http://www.w3.org/1999/xlink" x="0px" y="0px"
	 viewBox="0 0 28 22" style="enable-background:new 0 0 28 22;" xml:space="preserve">
<path d="M28,1c0,0.6-0.4,1-1,1H1C0.4,2,0,1.6,0,1l0,0c0-0.6,0.4-1,1-1h26C27.6,0,28,0.4,28,1L28,1z"/>
<path d="M28,21c0,0.6-0.4,1-1,1H1c-0.6,0-1-0.4-1-1l0,0c0-0.6,0.4-1,1-1h26C27.6,20,28,20.4,28,21L28,21z"/>
<path d="M28,11c0,0.6-0.4,1-1,1H1c-0.6,0-1-0.4-1-1l0,0c0-0.6,0.4-1,1-1h26C27.6,10,28,10.4,28,11L28,11z"/>
</svg>
