<?xml version="1.0" encoding="utf-8"?>
<!-- Generator: Adobe Illustrator 16.0.3, SVG Export Plug-In . SVG Version: 6.00 Build 0)  -->
<!DOCTYPE svg PUBLIC "-//W3C//DTD SVG 1.1//EN" "http://www.w3.org/Graphics/SVG/1.1/DTD/svg11.dtd">
<svg version="1.1" xmlns="http://www.w3.org/2000/svg" xmlns:xlink="http://www.w3.org/1999/xlink" x="0px" y="0px"
	 width="30px" height="30px" viewBox="0 0 30 30" enable-background="new 0 0 30 30" xml:space="preserve">
<path fill="#212121" d="M10.57,15.27h13.76c0.279,0,0.5,0.22,0.5,0.5c0,0.26-0.221,0.48-0.5,0.48H10.58c-0.27,0-0.5-0.221-0.5-0.5
	c0-0.26,0.23-0.48,0.5-0.48H10.57z M9.59,11.33H25.3c0.271,0,0.5,0.22,0.5,0.5c0,0.27-0.229,0.5-0.5,0.5H9.6
	c-0.3,0-0.5-0.23-0.5-0.5c0-0.28,0.2-0.5,0.5-0.5H9.59z M0.72,3.47c-0.64,0-0.65,0.98,0,0.98h3.54c0.08,0.34,0.63,2.76,1.3,5.64
	c0.7,3.06,1.42,7.2,1.57,7.75c0.13,0.5,0.26,1.04,0.6,1.52c0.37,0.48,1,0.802,1.85,0.802H25.3c0.841,0,1.47-0.32,1.83-0.802
	c0.36-0.479,0.479-1.028,0.601-1.52c0.271-0.98,1.601-6.83,1.869-7.82c0.15-0.55,0.2-1.13,0.021-1.66
	c-0.182-0.53-0.7-0.97-1.37-0.97H8.6c-0.64,0-0.65,0.98,0,0.98H28.27c0.32,0,0.36,0.07,0.44,0.3c0.101,0.24,0.08,0.67-0.03,1.1
	c-0.26,0.97-1.6,6.83-1.859,7.82c-0.119,0.5-0.25,0.93-0.439,1.18c-0.199,0.26-0.398,0.42-1.04,0.42H9.6
	c-0.64,0-0.86-0.16-1.06-0.42c-0.2-0.25-0.3-0.699-0.45-1.18c-0.12-0.42-0.87-4.66-1.57-7.73c-0.7-3.07-1.38-6.02-1.38-6.02
	C5.09,3.61,4.89,3.46,4.66,3.46H0.73L0.72,3.47z M23.34,21.17c-1.35,0-2.46,1.1-2.46,2.45c0,1.36,1.101,2.46,2.45,2.46
	s2.46-1.1,2.46-2.46C25.79,22.27,24.689,21.17,23.34,21.17z M23.34,22.15c0.82,0,1.48,0.648,1.48,1.47
	c0,0.819-0.65,1.479-1.48,1.479c-0.82,0-1.47-0.649-1.47-1.479S22.52,22.15,23.34,22.15z M11.54,21.17c-1.35,0-2.46,1.1-2.46,2.45
	c0,1.36,1.1,2.46,2.45,2.46c1.35,0,2.47-1.1,2.47-2.46c0-1.351-1.1-2.45-2.45-2.45H11.54z M11.54,22.15c0.82,0,1.48,0.648,1.48,1.47
	c0,0.819-0.66,1.479-1.48,1.479s-1.47-0.649-1.47-1.479S10.72,22.15,11.54,22.15z"/>
</svg>
