<?xml version="1.0" encoding="utf-8"?>
<!-- Generator: Adobe Illustrator 27.0.1, SVG Export Plug-In . SVG Version: 6.00 Build 0)  -->
<svg version="1.1" id="Camada_1" xmlns="http://www.w3.org/2000/svg" xmlns:xlink="http://www.w3.org/1999/xlink" x="0px" y="0px"
	 viewBox="0 0 30 30" style="enable-background:new 0 0 30 30;" xml:space="preserve">
<g>
	<path d="M14.6,16.5c4.3,0,7.8-3.5,7.8-7.8s-3.5-7.8-7.8-7.8S6.8,4.4,6.8,8.7S10.3,16.5,14.6,16.5z M14.6,2.6c3.4,0,6.1,2.7,6.1,6.1
		s-2.7,6.1-6.1,6.1S8.5,12,8.5,8.7S11.2,2.6,14.6,2.6z"/>
	<path d="M20.5,18.3H8.9c-3,0-5.5,2.5-5.5,5.5v3.5c0,1.8,1.4,3.2,3.2,3.2h16.2c1.8,0,3.2-1.4,3.2-3.2v-3.5
		C26,20.8,23.5,18.3,20.5,18.3z M24.2,27.3c0,0.8-0.6,1.4-1.4,1.4H6.6c-0.8,0-1.4-0.6-1.4-1.4v-3.5c0-2.1,1.7-3.8,3.8-3.8h11.6
		c2.1,0,3.8,1.7,3.8,3.8V27.3z"/>
</g>
</svg>
