<svg width="459.67px" height="459.67px" enable-background="new 0 0 459.669 459.669" version="1.1" viewBox="0 0 459.669 459.669" xml:space="preserve" xmlns="http://www.w3.org/2000/svg"><path d="m404.72 76.087h-349.78c-30.299 0-54.947 24.648-54.947 54.948v197.6c0 30.298 24.648 54.948 54.947 54.948h349.78c30.297 0 54.947-24.65 54.947-54.948v-197.6c1e-3 -30.3-24.649-54.948-54.946-54.948zm24.543 252.55c0 13.534-11.01 24.544-24.543 24.544h-349.78c-13.533 0-24.545-11.01-24.545-24.544v-132.42h398.86l1e-3 132.42zm0-175.79l-398.86 0.029v-21.834c0-13.534 11.012-24.545 24.545-24.545h349.78c13.533 0 24.543 11.011 24.543 24.545v21.805z"></path><path d="m68.135 324.98h83.23c2.98 0 5.398-2.416 5.398-5.396v-16.421c0-2.981-2.418-5.397-5.398-5.397h-83.23c-2.98 0-5.398 2.416-5.398 5.397v16.421c-1e-3 2.98 2.417 5.396 5.398 5.396z"></path><path d="m312.36 249.02c8.649 0 16.621 2.897 23.006 7.768 6.385-4.869 14.354-7.768 23.006-7.768 20.975 0 37.979 17.004 37.979 37.979s-17.005 37.977-37.979 37.977c-8.65 0-16.621-2.896-23.006-7.768-6.385 4.871-14.355 7.768-23.006 7.768-20.976 0-37.979-17.002-37.979-37.977s17.005-37.979 37.979-37.979z"></path></svg>