<svg width="43" height="43" alt="Instagram" xmlns="http://www.w3.org/2000/svg" viewBox="235 235 42 42" x="0px" y="0px"><circle cx="256" cy="256" r="21" fill="#707E89"></circle><g fill="#FFF"><path d="M267.986 251.028c-.059-1.284-.263-2.16-.561-2.927a5.906 5.906 0 0 0-1.391-2.135 5.925 5.925 0 0 0-2.137-1.392c-.767-.298-1.643-.501-2.927-.56-1.286-.059-1.696-.073-4.972-.073-3.275 0-3.686.014-4.972.073-1.284.059-2.16.262-2.927.561a5.906 5.906 0 0 0-2.135 1.391 5.908 5.908 0 0 0-1.392 2.135c-.298.767-.502 1.644-.56 2.927-.059 1.286-.073 1.697-.073 4.972 0 3.275.014 3.686.073 4.972.058 1.284.262 2.16.56 2.927a5.91 5.91 0 0 0 1.391 2.136 5.904 5.904 0 0 0 2.136 1.392c.767.298 1.644.502 2.927.561 1.286.059 1.697.072 4.972.072 3.275 0 3.685-.014 4.971-.072 1.284-.059 2.16-.263 2.927-.561a6.169 6.169 0 0 0 3.527-3.527c.298-.767.502-1.643.561-2.927.059-1.286.072-1.696.072-4.972.003-3.276-.011-3.687-.07-4.973zm-2.171 9.845c-.054 1.176-.25 1.814-.415 2.238a3.986 3.986 0 0 1-2.289 2.289c-.424.166-1.062.361-2.238.416-1.271.058-1.652.07-4.874.07-3.22 0-3.601-.013-4.873-.07-1.175-.055-1.814-.25-2.239-.416a3.739 3.739 0 0 1-1.387-.902 3.743 3.743 0 0 1-.902-1.387c-.165-.424-.362-1.062-.415-2.238-.058-1.271-.071-1.652-.071-4.873s.013-3.602.071-4.873c.053-1.176.25-1.814.415-2.239.193-.524.501-.998.902-1.386a3.722 3.722 0 0 1 1.386-.902c.425-.165 1.063-.361 2.239-.415 1.271-.058 1.653-.07 4.873-.07s3.602.013 4.873.07c1.176.054 1.814.25 2.238.415.524.193.998.501 1.387.902.4.389.709.863.902 1.386.165.425.361 1.063.415 2.239.058 1.271.07 1.653.07 4.873s-.01 3.602-.068 4.873z"></path><circle cx="262.438" cy="249.563" r="1.447"></circle><path d="M256 249.808a6.192 6.192 0 1 0 0 12.383 6.192 6.192 0 0 0 0-12.383zm0 10.212a4.02 4.02 0 1 1 0-8.04 4.02 4.02 0 0 1 0 8.04z"></path></g></svg>