<?xml version="1.0" encoding="utf-8"?>
<!-- Generator: Adobe Illustrator 27.0.1, SVG Export Plug-In . SVG Version: 6.00 Build 0)  -->
<svg version="1.1" id="Camada_1" xmlns="http://www.w3.org/2000/svg" xmlns:xlink="http://www.w3.org/1999/xlink" x="0px" y="0px"
	 viewBox="0 0 30 30" style="enable-background:new 0 0 30 30;" xml:space="preserve">
<style type="text/css">
	.st0{fill:#FFFFFF;}
</style>
<g>
	<path d="M14.9,16.2c4.3,0,7.8-3.5,7.8-7.8s-3.5-7.8-7.8-7.8S7.1,4,7.1,8.3S10.6,16.2,14.9,16.2z M14.9,2.3C18.3,2.3,21,5,21,8.3
		s-2.7,6.1-6.1,6.1s-6.1-2.7-6.1-6.1S11.6,2.3,14.9,2.3z"/>
	<path d="M20.8,18H9.2c-3,0-5.5,2.5-5.5,5.5V27c0,1.8,1.4,3.2,3.2,3.2h16.2c1.8,0,3.2-1.4,3.2-3.2v-3.5C26.3,20.5,23.8,18,20.8,18z
		 M24.6,27c0,0.8-0.6,1.4-1.4,1.4H6.9c-0.8,0-1.4-0.6-1.4-1.4v-3.5c0-2.1,1.7-3.8,3.8-3.8h11.6c2.1,0,3.8,1.7,3.8,3.8V27z"/>
</g>
<circle cx="22.9" cy="23.1" r="6.5"/>
<path class="st0" d="M19.6,27l3-4.1L20,19.2h1.2l1.4,2c0.3,0.4,0.5,0.7,0.6,1c0.2-0.3,0.4-0.6,0.6-0.9l1.6-2.1h1.1l-2.8,3.7l3,4.1
	h-1.3l-2-2.8c-0.1-0.1-0.2-0.3-0.3-0.5c-0.2,0.3-0.3,0.5-0.4,0.6l-2,2.7L19.6,27L19.6,27z"/>
</svg>
