<?xml version="1.0" encoding="utf-8"?>
<!-- Generator: Adobe Illustrator 16.0.3, SVG Export Plug-In . SVG Version: 6.00 Build 0)  -->
<!DOCTYPE svg PUBLIC "-//W3C//DTD SVG 1.1//EN" "http://www.w3.org/Graphics/SVG/1.1/DTD/svg11.dtd">
<svg version="1.1"
	 id="Layer_1" text-rendering="geometricPrecision" image-rendering="optimizeQuality" shape-rendering="geometricPrecision"
	 xmlns="http://www.w3.org/2000/svg" xmlns:xlink="http://www.w3.org/1999/xlink" x="0px" y="0px" width="43px" height="43px"
	 viewBox="0 0 43 43" enable-background="new 0 0 43 43" xml:space="preserve">
<path fill="#202124" d="M21.5,42.749c11.736,0,21.25-9.515,21.25-21.25C42.75,9.765,33.236,0.25,21.5,0.25
	C9.765,0.25,0.25,9.764,0.25,21.5C0.25,33.234,9.764,42.749,21.5,42.749"/>
<path fill="#FFFFFF" d="M31.316,12.142H11.458c-1.365,0-2.469,1.117-2.469,2.483L8.976,29.52c0,1.364,1.117,2.481,2.482,2.481
	h19.858c1.365,0,2.482-1.117,2.482-2.481V14.625C33.799,13.259,32.682,12.142,31.316,12.142z M31.316,17.107l-9.931,6.208
	l-9.929-6.208v-2.483l9.929,6.207l9.931-6.207V17.107L31.316,17.107z"/>
</svg>
