<?xml version="1.0" encoding="utf-8"?>
<!-- Generator: Adobe Illustrator 16.0.3, SVG Export Plug-In . SVG Version: 6.00 Build 0)  -->
<!DOCTYPE svg PUBLIC "-//W3C//DTD SVG 1.1//EN" "http://www.w3.org/Graphics/SVG/1.1/DTD/svg11.dtd">
<svg version="1.1" id="Layer_1" xmlns="http://www.w3.org/2000/svg" xmlns:xlink="http://www.w3.org/1999/xlink" x="0px" y="0px"
	 width="43px" height="43px" viewBox="0 0 43 43" enable-background="new 0 0 43 43" xml:space="preserve">
<circle fill="#202124" cx="21.583" cy="21.584" r="21.299"/>
<path fill="#FFFFFF" d="M34.636,14.714c-0.925,0.401-1.902,0.678-2.928,0.801c1.049-0.632,1.85-1.634,2.235-2.828
	c-1.001,0.593-2.098,1.017-3.237,1.233c-0.939-0.986-2.267-1.602-3.739-1.602c-2.82,0-5.108,2.288-5.108,5.109
	c0,0.4,0.045,0.786,0.131,1.157c-4.254-0.208-8.015-2.236-10.543-5.333c-0.439,0.754-0.694,1.633-0.694,2.564
	c0,1.772,0.902,3.344,2.274,4.263c-0.81-0.023-1.603-0.231-2.313-0.639v0.078c0,2.465,1.773,4.53,4.101,5.008
	c-0.447,0.109-0.902,0.169-1.356,0.169c-0.331,0-0.647-0.029-0.963-0.091c0.647,2.033,2.544,3.513,4.777,3.545
	c-1.756,1.388-3.96,2.196-6.357,2.196c-0.409,0-0.816-0.021-1.218-0.076c2.266,1.465,4.947,2.298,7.837,2.298
	c9.404,0,14.535-7.785,14.535-14.543v-0.657c0.986-0.716,1.851-1.618,2.542-2.634L34.636,14.714L34.636,14.714z"/>
</svg>
