<?xml version="1.0" encoding="utf-8"?>
<!-- Generator: Adobe Illustrator 16.0.3, SVG Export Plug-In . SVG Version: 6.00 Build 0)  -->
<!DOCTYPE svg PUBLIC "-//W3C//DTD SVG 1.1//EN" "http://www.w3.org/Graphics/SVG/1.1/DTD/svg11.dtd">
<svg version="1.1" id="Layer_1" xmlns="http://www.w3.org/2000/svg" xmlns:xlink="http://www.w3.org/1999/xlink" x="0px" y="0px"
	 width="43px" height="43px" viewBox="0 0 43 43" enable-background="new 0 0 43 43" xml:space="preserve">
<circle fill="#202124" cx="21.583" cy="21.584" r="21.299"/>
<path fill="#F2F2F2" d="M23.307,28.805c-1.612-0.119-2.292-0.922-3.551-1.688c-0.689,3.638-1.551,7.136-4.05,8.963
	c-0.776-5.517,1.12-9.651,2.016-14.029c-1.517-2.551,0.173-7.687,3.378-6.42c3.938,1.551-3.403,9.479,1.526,10.47
	c5.151,1.034,7.256-8.928,4.05-12.167c-4.602-4.679-13.409-0.112-12.323,6.583c0.259,1.637,1.956,2.137,0.672,4.395
	c-2.947-0.655-3.826-2.981-3.706-6.084c0.173-5.067,4.567-8.617,8.962-9.117c5.541-0.621,10.771,2.042,11.479,7.273
	c0.811,5.895-2.499,12.28-8.445,11.823H23.307z"/>
</svg>
