<?xml version="1.0" encoding="utf-8"?>
<!-- Generator: Adobe Illustrator 16.0.3, SVG Export Plug-In . SVG Version: 6.00 Build 0)  -->
<!DOCTYPE svg PUBLIC "-//W3C//DTD SVG 1.1//EN" "http://www.w3.org/Graphics/SVG/1.1/DTD/svg11.dtd">
<svg version="1.1" xmlns="http://www.w3.org/2000/svg" xmlns:xlink="http://www.w3.org/1999/xlink" x="0px" y="0px"
	 width="22px" height="22px" viewBox="0 0 22 22" enable-background="new 0 0 22 22" xml:space="preserve">
<path fill="#FFFFFF" d="M20.77,19.93l-5.155-5.362c1.325-1.577,2.052-3.56,2.052-5.625c0-4.823-3.925-8.748-8.748-8.748
	S0.17,4.12,0.17,8.943c0,4.824,3.924,8.748,8.748,8.748c1.811,0,3.536-0.546,5.012-1.583l5.195,5.404
	c0.217,0.225,0.51,0.35,0.822,0.35c0.297,0,0.577-0.113,0.792-0.318C21.192,21.107,21.206,20.383,20.77,19.93z M8.918,2.477
	c3.566,0,6.465,2.9,6.465,6.466c0,3.566-2.898,6.465-6.465,6.465c-3.565,0-6.465-2.899-6.465-6.465
	C2.453,5.377,5.353,2.477,8.918,2.477z"/>
</svg>
