<svg xmlns="http://www.w3.org/2000/svg" width="30" height="30" xml:space="preserve"><g fill="#FFF"><path d="M9.075 6.273h17.053c.241 0 .437-.196.437-.438s-.196-.435-.437-.435H9.075a3.058 3.058 0 0 0-3.021-2.618 3.059 3.059 0 0 0-3.055 3.055 3.058 3.058 0 0 0 3.055 3.055 3.06 3.06 0 0 0 3.021-2.619zM17.97 15.437h8.158a.437.437 0 1 0 0-.874h-8.131c-.172-1.572-1.508-2.8-3.125-2.8s-2.951 1.229-3.125 2.8H3.435a.437.437 0 0 0 0 .874h8.34c.252 1.483 1.543 2.618 3.098 2.618s2.845-1.135 3.097-2.618zM23.51 27.219c1.685 0 3.056-1.371 3.056-3.055s-1.371-3.055-3.056-3.055a3.055 3.055 0 0 0-3.019 2.618H3.438a.436.436 0 1 0 0 .873H20.49a3.058 3.058 0 0 0 3.02 2.619z"/></g></svg>