<?xml version="1.0" encoding="utf-8"?>
<!-- Generator: Adobe Illustrator 27.0.1, SVG Export Plug-In . SVG Version: 6.00 Build 0)  -->
<svg version="1.1" id="passo1_on" xmlns="http://www.w3.org/2000/svg" xmlns:xlink="http://www.w3.org/1999/xlink" x="0px" y="0px"
	 viewBox="0 0 76 44" style="enable-background:new 0 0 76 44;" xml:space="preserve">
<style type="text/css">
	.st0{fill:#FFFFFF;}
</style>
<rect x="27.1" y="11" width="49" height="1"/>
<g>
	<path d="M3.1,39.2V30h1.1v9.3L3.1,39.2L3.1,39.2z"/>
	<path d="M10.9,38.3L10.9,38.3c-0.5,0.7-1.3,1.1-2.2,1.1s-1.6-0.3-2.1-0.9S5.8,37,5.8,35.8s0.3-2,0.8-2.7c0.5-0.7,1.2-1,2.1-1
		c0.9,0,1.7,0.3,2.2,1H11v-0.5v-0.5v-2.8h1.1v9.9h-0.9L10.9,38.3z M8.8,38.5c0.7,0,1.2-0.2,1.6-0.6c0.3-0.4,0.5-1,0.5-1.9v-0.2
		c0-1-0.2-1.7-0.5-2.1C10,33.3,9.5,33,8.8,33c-0.6,0-1.1,0.2-1.4,0.7s-0.5,1.2-0.5,2c0,0.9,0.2,1.6,0.5,2
		C7.7,38.3,8.2,38.5,8.8,38.5z"/>
	<path d="M16.7,39.4c-1,0-1.8-0.3-2.4-0.9c-0.6-0.6-0.9-1.5-0.9-2.6c0-1.1,0.3-2,0.8-2.7c0.6-0.7,1.3-1,2.2-1s1.6,0.3,2.1,0.9
		c0.5,0.6,0.8,1.3,0.8,2.3V36h-4.8c0,0.8,0.2,1.4,0.6,1.9c0.4,0.4,0.9,0.6,1.7,0.6c0.7,0,1.5-0.2,2.2-0.5v0.9
		c-0.4,0.2-0.7,0.3-1.1,0.3C17.6,39.3,17.2,39.4,16.7,39.4z M16.4,33c-0.6,0-1,0.2-1.3,0.5c-0.3,0.4-0.5,0.9-0.6,1.5h3.6
		c0-0.7-0.1-1.2-0.4-1.5S17,33,16.4,33z"/>
	<path d="M25.4,39.2v-4.5c0-0.6-0.1-1-0.4-1.3c-0.3-0.3-0.7-0.4-1.2-0.4c-0.7,0-1.3,0.2-1.6,0.6c-0.3,0.4-0.5,1-0.5,1.9v3.7h-1.1v-7
		h0.9l0.2,1h0.1c0.2-0.3,0.5-0.6,0.9-0.8c0.4-0.2,0.8-0.3,1.3-0.3c0.8,0,1.5,0.2,1.9,0.6c0.4,0.4,0.6,1.1,0.6,1.9v4.5h-1.1
		C25.4,39.1,25.4,39.2,25.4,39.2z"/>
	<path d="M30.5,38.5c0.2,0,0.4,0,0.5,0c0.2,0,0.3-0.1,0.4-0.1v0.8c-0.1,0.1-0.3,0.1-0.5,0.1s-0.4,0.1-0.6,0.1c-1.3,0-2-0.7-2-2.1
		v-4.1h-1v-0.5l1-0.4l0.4-1.5h0.6v1.6h2v0.8h-2v4.1c0,0.4,0.1,0.7,0.3,1C29.9,38.4,30.2,38.5,30.5,38.5z"/>
	<path d="M32.4,30.4c0-0.2,0.1-0.4,0.2-0.5c0.1-0.1,0.3-0.2,0.4-0.2c0.2,0,0.3,0.1,0.4,0.2c0.1,0.1,0.2,0.3,0.2,0.5
		c0,0.2-0.1,0.4-0.2,0.5c-0.1,0.1-0.3,0.2-0.4,0.2c-0.2,0-0.3-0.1-0.4-0.2C32.4,30.8,32.4,30.6,32.4,30.4z M33.5,39.2h-1.1v-7h1.1
		V39.2z"/>
	<path d="M38.5,33.1h-1.8v6.1h-1.1v-6.1h-1.2v-0.5l1.2-0.4v-0.4c0-1.7,0.7-2.6,2.2-2.6c0.4,0,0.8,0.1,1.3,0.2l-0.3,0.8
		c-0.4-0.1-0.8-0.2-1-0.2c-0.4,0-0.7,0.1-0.9,0.4s-0.3,0.7-0.3,1.3v0.5h1.8v0.9H38.5z M39.7,30.4c0-0.2,0.1-0.4,0.2-0.5
		c0.1-0.1,0.3-0.2,0.4-0.2c0.2,0,0.3,0.1,0.4,0.2c0.1,0.1,0.2,0.3,0.2,0.5c0,0.2-0.1,0.4-0.2,0.5c-0.1,0.1-0.3,0.2-0.4,0.2
		c-0.2,0-0.3-0.1-0.4-0.2C39.7,30.8,39.7,30.6,39.7,30.4z M40.8,39.2h-1.1v-7h1.1V39.2z"/>
	<path d="M45.4,39.4c-1,0-1.8-0.3-2.3-0.9c-0.6-0.6-0.8-1.5-0.8-2.6c0-1.2,0.3-2.1,0.8-2.7c0.6-0.6,1.4-1,2.4-1c0.3,0,0.7,0,1,0.1
		c0.3,0.1,0.6,0.2,0.8,0.3L47,33.4c-0.2-0.1-0.5-0.2-0.8-0.2c-0.3-0.1-0.5-0.1-0.7-0.1c-1.4,0-2.1,0.9-2.1,2.7c0,0.9,0.2,1.5,0.5,2
		c0.3,0.5,0.9,0.7,1.5,0.7c0.6,0,1.2-0.1,1.8-0.4V39C46.7,39.2,46.1,39.4,45.4,39.4z"/>
	<path d="M52.7,39.2l-0.2-1h-0.1c-0.3,0.4-0.7,0.7-1,0.9c-0.3,0.2-0.8,0.2-1.3,0.2c-0.7,0-1.2-0.2-1.6-0.5c-0.4-0.4-0.6-0.9-0.6-1.5
		c0-1.4,1.1-2.1,3.4-2.2h1.2v-0.4c0-0.5-0.1-0.9-0.4-1.2C51.9,33.2,51.5,33,51,33c-0.6,0-1.2,0.2-2,0.5l-0.3-0.8
		c0.3-0.2,0.7-0.3,1.1-0.4c0.4-0.1,0.8-0.2,1.2-0.2c0.8,0,1.4,0.2,1.8,0.6c0.4,0.4,0.6,1,0.6,1.8v4.7L52.7,39.2L52.7,39.2z
		 M50.3,38.5c0.7,0,1.2-0.2,1.5-0.5c0.4-0.4,0.6-0.9,0.6-1.5v-0.6h-1.1c-0.8,0-1.4,0.2-1.8,0.4s-0.6,0.6-0.6,1.1
		c0,0.4,0.1,0.7,0.3,0.9C49.6,38.4,49.9,38.5,50.3,38.5z"/>
	<path d="M58.1,39.4c-1,0-1.8-0.3-2.3-0.9C55.2,37.9,55,37,55,35.9c0-1.2,0.3-2.1,0.8-2.7c0.5-0.6,1.4-1,2.4-1c0.3,0,0.7,0,1,0.1
		c0.3,0.1,0.6,0.2,0.8,0.3l-0.3,0.9c-0.2-0.1-0.5-0.2-0.8-0.2c-0.3-0.1-0.5-0.1-0.7-0.1c-1.4,0-2.1,0.9-2.1,2.7c0,0.9,0.2,1.5,0.5,2
		c0.3,0.5,0.9,0.7,1.5,0.7c0.6,0,1.2-0.1,1.8-0.4V39C59.4,39.2,58.8,39.4,58.1,39.4z M59,41.1c0,0.4-0.2,0.7-0.5,1
		c-0.3,0.2-0.8,0.3-1.4,0.3c-0.2,0-0.4,0-0.6-0.1v-0.7c0.2,0,0.4,0.1,0.7,0.1s0.6,0,0.8-0.1c0.2-0.1,0.3-0.2,0.3-0.5
		c0-0.2-0.1-0.3-0.2-0.4c-0.2-0.1-0.5-0.2-0.9-0.3l0.6-1.1h0.7L57.9,40C58.6,40.1,59,40.5,59,41.1z"/>
	<path d="M65.4,39.2l-0.2-1h-0.1c-0.3,0.4-0.7,0.7-1,0.9c-0.3,0.2-0.8,0.2-1.3,0.2c-0.7,0-1.2-0.2-1.6-0.5c-0.4-0.3-0.6-0.9-0.6-1.5
		c0-1.4,1.1-2.1,3.4-2.2h1.2v-0.4c0-0.5-0.1-0.9-0.4-1.2c-0.2-0.3-0.6-0.4-1.1-0.4c-0.6,0-1.2,0.2-2,0.5l-0.3-0.8
		c0.3-0.2,0.7-0.3,1.1-0.4c0.4-0.1,0.8-0.2,1.2-0.2c0.8,0,1.4,0.2,1.8,0.6c0.4,0.4,0.6,1,0.6,1.8v4.7h-0.7V39.2z M64.6,31.4
		c-0.2,0-0.4,0-0.5-0.1c-0.2-0.1-0.3-0.2-0.5-0.3c-0.2-0.1-0.3-0.2-0.5-0.3c-0.2-0.1-0.3-0.1-0.4-0.1c-0.2,0-0.4,0.1-0.5,0.2
		c-0.1,0.1-0.2,0.3-0.3,0.6h-0.6c0.1-0.5,0.2-0.9,0.4-1.2s0.6-0.4,0.9-0.4c0.2,0,0.4,0,0.6,0.1c0.2,0.1,0.4,0.2,0.5,0.3
		c0.2,0.1,0.3,0.2,0.5,0.3s0.3,0.1,0.4,0.1c0.2,0,0.4-0.1,0.5-0.2c0.1-0.1,0.2-0.3,0.2-0.6h0.6c-0.1,0.5-0.2,0.9-0.4,1.2
		C65.3,31.2,64.9,31.4,64.6,31.4z M63,38.5c0.7,0,1.2-0.2,1.5-0.5c0.4-0.4,0.6-0.9,0.6-1.5v-0.6H64c-0.8,0-1.4,0.2-1.8,0.4
		c-0.4,0.2-0.6,0.6-0.6,1.1c0,0.4,0.1,0.7,0.3,0.9C62.3,38.4,62.6,38.5,63,38.5z"/>
	<path d="M73.9,35.8c0,1.1-0.3,2-0.9,2.7c-0.6,0.6-1.4,1-2.4,1c-0.6,0-1.2-0.1-1.7-0.4c-0.5-0.3-0.9-0.7-1.1-1.3
		c-0.3-0.5-0.4-1.2-0.4-1.9c0-1.1,0.3-2,0.9-2.6c0.6-0.6,1.4-0.9,2.4-0.9s1.7,0.3,2.3,1C73.6,34.1,73.9,34.7,73.9,35.8z M68.6,35.8
		c0,0.9,0.2,1.6,0.5,2c0.4,0.5,0.9,0.7,1.6,0.7s1.2-0.2,1.6-0.7s0.5-1.1,0.5-2c0-0.9-0.2-1.6-0.5-2c-0.4-0.5-0.9-0.7-1.6-0.7
		s-1.2,0.2-1.6,0.7C68.7,34.3,68.6,34.9,68.6,35.8z"/>
</g>
<circle cx="38.1" cy="11.5" r="11.5"/>
<circle class="st0" cx="38.1" cy="11.5" r="10.5"/>
</svg>
