<?xml version="1.0" encoding="utf-8"?>
<!-- Generator: Adobe Illustrator 27.0.1, SVG Export Plug-In . SVG Version: 6.00 Build 0)  -->
<svg version="1.1" id="passo1_on" xmlns="http://www.w3.org/2000/svg" xmlns:xlink="http://www.w3.org/1999/xlink" x="0px" y="0px"
	 viewBox="0 0 76 44" style="enable-background:new 0 0 76 44;" xml:space="preserve">
<style type="text/css">
	.st0{fill:#FFFFFF;}
</style>
<rect x="27.1" y="11" width="49" height="1"/>
<g>
	<path d="M1.2,39.2V30h1.5v9.3L1.2,39.2L1.2,39.2z"/>
	<path d="M7,39.4c-0.9,0-1.6-0.3-2.1-1c-0.5-0.7-0.7-1.5-0.7-2.7s0.2-2,0.7-2.7c0.5-0.6,1.2-1,2.1-1s1.6,0.3,2.1,1h0.1
		c-0.1-0.5-0.1-0.9-0.1-1.2v-2.6h1.5v9.9H9.4l-0.3-0.9l0,0C8.6,39,7.9,39.4,7,39.4z M7.4,38.2c0.6,0,1.1-0.2,1.3-0.5
		c0.3-0.4,0.5-1,0.5-1.7v-0.2c0-0.9-0.1-1.5-0.4-1.9c-0.3-0.4-0.8-0.6-1.4-0.6c-0.5,0-0.9,0.2-1.2,0.6c-0.3,0.4-0.4,1-0.4,1.8
		s0.1,1.4,0.4,1.8C6.5,37.9,6.9,38.2,7.4,38.2z"/>
	<path d="M15.4,39.4c-1.1,0-1.9-0.3-2.6-1c-0.6-0.6-0.9-1.5-0.9-2.6c0-1.1,0.3-2,0.9-2.7c0.6-0.7,1.4-1,2.4-1c0.9,0,1.7,0.3,2.2,0.8
		s0.8,1.3,0.8,2.3V36h-4.7c0,0.7,0.2,1.2,0.6,1.6c0.3,0.4,0.8,0.5,1.5,0.5c0.4,0,0.8,0,1.2-0.1s0.7-0.2,1.2-0.4v1.2
		c-0.4,0.2-0.7,0.3-1.1,0.4C16.5,39.3,15.9,39.4,15.4,39.4z M15.1,33.2c-0.5,0-0.9,0.2-1.1,0.5c-0.3,0.3-0.5,0.7-0.5,1.3h3.2
		c0-0.6-0.1-1-0.4-1.3C16,33.4,15.6,33.2,15.1,33.2z"/>
	<path d="M25.6,39.2h-1.5v-4.3c0-0.5-0.1-0.9-0.3-1.2c-0.2-0.3-0.6-0.4-1-0.4c-0.6,0-1.1,0.2-1.4,0.6c-0.3,0.4-0.4,1-0.4,1.9v3.5
		h-1.5v-7h1.2l0.2,0.9H21c0.2-0.3,0.5-0.6,0.9-0.8c0.4-0.2,0.8-0.3,1.3-0.3c1.7,0,2.5,0.9,2.5,2.6L25.6,39.2
		C25.7,39.2,25.6,39.2,25.6,39.2z"/>
	<path d="M29.9,38.2c0.4,0,0.7-0.1,1.1-0.2v1.1c-0.2,0.1-0.4,0.1-0.6,0.2c-0.3,0-0.5,0.1-0.8,0.1c-1.4,0-2.1-0.7-2.1-2.2v-3.8h-1
		v-0.7l1-0.5l0.5-1.5h1v1.6h2v1.1h-2v3.8c0,0.4,0.1,0.6,0.3,0.8C29.4,38.1,29.6,38.2,29.9,38.2z"/>
	<path d="M31.9,30.4c0-0.3,0.1-0.5,0.2-0.6c0.1-0.1,0.4-0.2,0.6-0.2c0.3,0,0.5,0.1,0.6,0.2c0.1,0.1,0.2,0.3,0.2,0.6
		c0,0.3-0.1,0.5-0.2,0.6c-0.1,0.1-0.4,0.2-0.6,0.2c-0.3,0-0.5-0.1-0.6-0.2C32,30.8,31.9,30.6,31.9,30.4z M33.5,39.2H32v-7h1.5V39.2z
		"/>
	<path d="M38.8,33.4h-1.7v5.9h-1.5v-5.9h-1.2v-0.7l1.2-0.5v-0.5c0-0.8,0.2-1.4,0.6-1.8c0.4-0.4,1-0.6,1.8-0.6c0.5,0,1,0.1,1.5,0.3
		l-0.4,1.1c-0.4-0.1-0.7-0.2-1.1-0.2c-0.3,0-0.6,0.1-0.7,0.3c-0.2,0.2-0.2,0.5-0.2,0.9v0.5h1.7V33.4z M39.9,30.4
		c0-0.3,0.1-0.5,0.2-0.6c0.1-0.1,0.4-0.2,0.6-0.2c0.3,0,0.5,0.1,0.6,0.2c0.1,0.1,0.2,0.3,0.2,0.6c0,0.3-0.1,0.5-0.2,0.6
		c-0.1,0.1-0.3,0.2-0.6,0.2s-0.5-0.1-0.6-0.2C40,30.8,39.9,30.6,39.9,30.4z M41.5,39.2H40v-7h1.5V39.2z"/>
	<path d="M46.1,39.4c-1.1,0-1.9-0.3-2.4-0.9c-0.6-0.6-0.8-1.5-0.8-2.7s0.3-2.1,0.9-2.7c0.6-0.6,1.4-1,2.5-1c0.7,0,1.4,0.1,2,0.4
		l-0.5,1.2c-0.6-0.2-1.2-0.4-1.6-0.4c-1.2,0-1.8,0.8-1.8,2.4c0,0.8,0.2,1.4,0.5,1.8c0.3,0.4,0.7,0.6,1.3,0.6c0.7,0,1.3-0.2,1.9-0.5
		v1.3c-0.3,0.2-0.6,0.3-0.9,0.3C46.9,39.3,46.5,39.4,46.1,39.4z"/>
	<path d="M53.7,39.2l-0.3-1h-0.1c-0.3,0.4-0.7,0.7-1,0.9c-0.3,0.2-0.8,0.2-1.3,0.2c-0.7,0-1.2-0.2-1.6-0.6c-0.4-0.4-0.6-0.9-0.6-1.6
		c0-0.7,0.3-1.3,0.8-1.6c0.5-0.4,1.4-0.6,2.5-0.6h1.2v-0.4c0-0.4-0.1-0.8-0.3-1s-0.5-0.3-1-0.3c-0.4,0-0.7,0.1-1,0.2
		c-0.3,0.1-0.6,0.2-1,0.4l-0.5-1.1c0.4-0.2,0.8-0.4,1.2-0.5c0.5-0.1,0.9-0.2,1.3-0.2c0.9,0,1.6,0.2,2,0.6c0.5,0.4,0.7,1,0.7,1.8v4.7
		h-1V39.2z M51.4,38.2c0.5,0,1-0.2,1.3-0.5s0.5-0.7,0.5-1.3v-0.6h-0.9c-0.7,0-1.2,0.1-1.5,0.4c-0.3,0.2-0.5,0.5-0.5,1
		c0,0.3,0.1,0.6,0.3,0.7C50.8,38,51.1,38.2,51.4,38.2z"/>
	<path d="M59.3,39.4c-1.1,0-1.9-0.3-2.4-0.9c-0.6-0.6-0.8-1.5-0.8-2.7s0.3-2.1,0.9-2.7c0.6-0.6,1.4-1,2.5-1c0.7,0,1.4,0.1,2,0.4
		L61,33.7c-0.6-0.2-1.2-0.4-1.6-0.4c-1.2,0-1.8,0.8-1.8,2.4c0,0.8,0.2,1.4,0.5,1.8c0.3,0.4,0.7,0.6,1.3,0.6c0.7,0,1.3-0.2,1.9-0.5
		v1.3c-0.3,0.2-0.6,0.3-0.9,0.3C60.1,39.3,59.7,39.4,59.3,39.4z M60.3,41c0,0.9-0.6,1.4-1.9,1.4c-0.3,0-0.5,0-0.8-0.1v-0.9
		c0.2,0.1,0.5,0.1,0.8,0.1c0.2,0,0.4,0,0.5-0.1c0.1-0.1,0.2-0.2,0.2-0.4c0-0.4-0.4-0.6-1.1-0.7l0.5-1.1h1l-0.3,0.6
		c0.3,0.1,0.6,0.2,0.8,0.4S60.3,40.7,60.3,41z"/>
	<path d="M66.9,39.2l-0.3-1h-0.1c-0.3,0.4-0.7,0.7-1,0.9c-0.3,0.2-0.8,0.2-1.3,0.2c-0.7,0-1.2-0.2-1.6-0.6c-0.4-0.4-0.6-0.9-0.6-1.6
		c0-0.7,0.3-1.3,0.8-1.6s1.4-0.6,2.5-0.6h1.2v-0.4c0-0.4-0.1-0.8-0.3-1s-0.5-0.3-1-0.3c-0.4,0-0.7,0.1-1,0.2c-0.3,0.1-0.6,0.2-1,0.4
		l-0.5-1.1c0.4-0.2,0.8-0.4,1.2-0.5c0.5-0.1,0.9-0.2,1.3-0.2c0.9,0,1.6,0.2,2,0.6c0.4,0.4,0.7,1,0.7,1.8v4.7h-1
		C66.9,39.1,66.9,39.2,66.9,39.2z M66.2,31.4c-0.2,0-0.4,0-0.5-0.1c-0.2-0.1-0.3-0.2-0.5-0.2c-0.2-0.1-0.3-0.2-0.5-0.2
		c-0.2-0.1-0.3-0.1-0.5-0.1c-0.3,0-0.6,0.2-0.7,0.7h-0.8c0.1-0.6,0.2-1,0.5-1.3s0.6-0.5,1.1-0.5c0.2,0,0.4,0,0.5,0.1
		c0.2,0.1,0.3,0.2,0.5,0.2c0.2,0.1,0.3,0.2,0.5,0.2c0.2,0.1,0.3,0.1,0.4,0.1c0.3,0,0.6-0.2,0.7-0.7h0.8c-0.1,0.6-0.2,1-0.5,1.3
		C67,31.2,66.6,31.4,66.2,31.4z M64.6,38.2c0.5,0,1-0.2,1.3-0.5c0.3-0.3,0.5-0.7,0.5-1.3v-0.6h-0.9c-0.7,0-1.2,0.1-1.5,0.4
		c-0.3,0.2-0.5,0.5-0.5,1c0,0.3,0.1,0.6,0.3,0.7C64,38.1,64.3,38.2,64.6,38.2z"/>
	<path d="M75.8,35.7c0,1.1-0.3,2-0.9,2.7c-0.6,0.6-1.4,1-2.5,1c-0.7,0-1.2-0.1-1.7-0.4s-0.9-0.7-1.2-1.3c-0.3-0.6-0.4-1.2-0.4-1.9
		c0-1.1,0.3-2,0.9-2.7c0.6-0.7,1.4-1,2.5-1c1,0,1.8,0.3,2.4,1C75.6,33.7,75.8,34.6,75.8,35.7z M70.7,35.7c0,1.6,0.6,2.4,1.8,2.4
		s1.8-0.8,1.8-2.4c0-1.6-0.6-2.4-1.8-2.4c-0.6,0-1.1,0.2-1.4,0.6C70.9,34.4,70.7,34.9,70.7,35.7z"/>
</g>
<circle cx="38.1" cy="11.5" r="11.5"/>
<circle class="st0" cx="38.1" cy="11.5" r="10.5"/>
<circle cx="38.1" cy="11.5" r="7.5"/>
</svg>
