<?xml version="1.0" encoding="UTF-8"?>
<svg id="Camada_1" data-name="Camada 1" xmlns="http://www.w3.org/2000/svg" viewBox="0 0 1325.6 357.46">
  <defs>
    <style>
      .cls-1, .cls-2, .cls-3 {
        fill: #232324;
      }

      .cls-2 {
        font-family: AlmatianRegular, Almatian;
        font-size: 204.08px;
        letter-spacing: 0em;
      }

      .cls-3 {
        font-family: Montserrat-Medium, Montserrat;
        font-size: 29.6px;
        font-weight: 500;
        letter-spacing: 1em;
      }
    </style>
  </defs>
  <text class="cls-2" transform="translate(0 284.08)"><tspan x="0" y="0">Mariana Medina</tspan></text>
  <text class="cls-3" transform="translate(555.96 349.79)"><tspan x="0" y="0">SHOES</tspan></text>
  <path class="cls-1" d="M720.75,57.69c1.72-3.03,1.96-6.74,.65-9.69-.34-.76-.66-1.53-.98-2.3-.32-.78-.64-1.56-.99-2.33-.28-.63-.33-.87,.44-1.65,2.02-2.02,4.61-4.72,6.69-7.74,2.19-3.19,1.98-5.72,1.42-7.28-.83-2.29-2.99-4.05-6.09-4.93-3.69-1.06-7.65-.94-11.78,.33-1.9,.58-3.77,1.27-5.62,1.98,2.62-2.63,4.37-5.24,5.46-8.12,2.11-5.6-.48-11.59-6.03-13.92-4.44-1.87-9.29-2.42-15.74-1.78-4.97,.49-8.72,3.15-11.14,7.91-.31,.61-.56,1.24-.79,1.87-.86-3.65-3.46-6.47-7.35-7.92-4.38-1.65-9.43-1.23-12.58,1.06-1.5,1.09-2.64,2.55-3.04,3.9-.42,1.39-1.19,1.76-3.06,2.54-2.91,1.22-6.25,2.69-9.11,4.83-4.84,3.62-6.94,8.79-5.76,14.16,1.83,8.35,6.06,13.28,12.98,15.09,2.75,.72,5.51,1.7,8.18,2.65,1.64,.58,3.29,1.17,4.95,1.7,2.48,.8,4.54,1.34,6.48,1.71,1.4,.26,2.16,.51,2.32,.74,.08,.13,.13,.61-.39,2.28-2.88,9.24-6.8,17.14-11.99,24.15-3.33,4.51-6.42,9.13-9.26,13.46-9.77,14.89-21.17,29.18-33.88,42.47-.72,.75-1.45,1.49-2.18,2.24-1.36,1.39-2.71,2.78-4.02,4.22-.54,.6-.62,1.38-.68,2-.02,.18-.04,.37-.07,.54l-.35,1.68,2.25-.28c.53-.04,1.14-.09,1.74-.32,.59-.23,.95-.67,1.25-1.03,.09-.1,.17-.21,.26-.3,13.84-13.48,25.43-27.15,35.42-41.79l2.88-4.23c2.81-4.14,5.62-8.28,8.51-12.36,5.7-8.08,11.41-17.02,14.6-27.62,.01-.04,.03-.09,.06-.14,.73,.42,1.46,.85,2.17,1.27,2.33,1.38,4.53,2.68,6.94,3.7,9.79,4.17,19.82,3.7,29.19,2.58,3.48-.42,6.34-2.31,8.05-5.32Zm-43.74-6.77h0c-.28-.21-.53-.45-.69-.66-.17-.23-.21-.38-.11-.39,.91-.4,1.87-.78,2.71-.8,1.67-.03,3.34,.17,5.2,.42,9.67,1.3,19.29,.02,29.41-3.93,.93-.36,1.14-.27,1.14-.27,0-.02,.17,.08,.41,.81,.24,.72,.54,1.43,.84,2.14,.41,.96,.8,1.88,1.02,2.81,.38,1.63,.12,3.28-.71,4.54-.72,1.09-1.8,1.79-3.1,2.02-14.53,2.54-25.67,.68-35.05-5.86l-1.08-.83Zm-17.21-25.17c-.28-.98-.6-1.95-.92-2.92-.88-2.68-1.72-5.21-1.68-7.93,0-.25,0-.43,.02-.58,.15,.05,.34,.12,.59,.22,3.24,1.25,5.65,3.04,7.37,5.45,2.54,3.58,4.71,6.87,5.55,10.79,.62,2.91,.57,5.5-.17,8.24-5.27-3.67-9.12-7.47-10.77-13.27Zm11.82-5.39c-1.72-3.01-3.84-5.5-6.36-7.44-1.87-1.45-3.96-2.6-6.26-3.44-.81-.3-1.04-.6-1.05-.68-.02-.09,.1-.51,.83-1.16,1.78-1.59,4.75-1.99,7.56-1.01,2.68,.92,4.57,2.89,4.96,5.11,.47,2.66,.56,5.49,.65,8.22,.01,.33,.02,.67,.04,1-.12-.2-.25-.4-.36-.61Zm-19.56-5.69c-.02,3.27,.9,6.29,1.79,9.21,.28,.92,.57,1.84,.82,2.77,2.14,7.83,7.62,12.59,12.22,15.97l.69,.49c.69,.49,1.36,.95,1.77,1.34,.02,.05,.03,.16,.02,.29-.02,0-.04,0-.05,0-.42-.06-.85-.1-1.28-.15-1.22-.13-2.36-.24-3.23-.69-3.69-1.9-7.64-3.01-11.46-4.09-1.72-.49-3.45-.97-5.16-1.54-4.34-1.42-8.54-8.07-7.9-12.47,.21-1.46,.78-2.88,1.28-4.14,.17-.43,.33-.84,.47-1.21,3.3-3.46,6.8-5.01,10.01-6.09,0,.08,0,.18,0,.31Zm24.6,23.49c.02-.12,.03-.23,.04-.35,.24-1.89,.48-3.78,.71-5.67,.59-4.8,1.2-9.76,2.01-14.59,.45-2.73,1.56-5.38,2.75-8.08,.9-2.05,2.64-3.38,5.03-3.84,5.3-1.01,9.95-.73,14.21,.87,.77,.29,1.45,.66,2.02,1.1,.77,.6,1.35,1.33,1.71,2.16,.63,1.5,.54,3.28-.27,5.15-1.02,2.34-2.63,4.42-5.06,6.55-2.32,2.03-4.58,4.13-6.83,6.23-1.15,1.07-2.29,2.13-3.58,3.31-.48,.44-.94,.86-1.41,1.1-.93,.47-1.89,.92-2.84,1.36-1.28,.59-2.56,1.19-3.8,1.86-1.38,.75-2.72,1.59-4.32,2.61-.12,.07-.24,.15-.36,.23Zm5.13,4.81c1.26-.77,2.51-1.54,3.7-2.4,7.95-5.74,16.24-3.68,24.75-.86,.15,.05,.31,.15,.47,.27,.25,.19,.52,.46,.78,.74-.48,.32-.94,.6-1.4,.75-8.64,2.87-15.86,3.89-22.73,3.19-2.29-.23-4.59-.44-7.09-.67h-.13c.54-.35,1.09-.69,1.64-1.03Zm34.81-16.7c1.47-.07,3.16,.19,4.88,.74,.41,.13,.76,.31,1.04,.53,.32,.25,.55,.54,.67,.86,.24,.65-.02,1.29-.27,1.71-1.54,2.49-3.57,4.78-5.53,7l-.21,.26c-.17,.1-.7,.16-.75,.18-5.34-4.13-11.46-5.07-17.37-5.46,5.75-3.13,11.26-5.53,17.54-5.82Z"/>
</svg>