<?xml version="1.0" encoding="utf-8"?>
<!-- Generator: Adobe Illustrator 27.0.1, SVG Export Plug-In . SVG Version: 6.00 Build 0)  -->
<svg version="1.1" id="Camada_1" xmlns="http://www.w3.org/2000/svg" xmlns:xlink="http://www.w3.org/1999/xlink" x="0px" y="0px"
	 viewBox="0 0 38 38" style="enable-background:new 0 0 38 38;" xml:space="preserve">
<style type="text/css">
	.st0{fill:#FDFDFE;stroke:#000000;stroke-miterlimit:10;}
</style>
<path class="st0" d="M37.4,33.9c0,1.9-1.6,3.5-3.5,3.5c0,0,0,0,0,0H4.3c-1.9,0-3.5-1.6-3.5-3.5c0,0,0,0,0,0V4.3
	c0-1.9,1.6-3.5,3.5-3.5c0,0,0,0,0,0h29.6c1.9,0,3.5,1.6,3.5,3.5c0,0,0,0,0,0L37.4,33.9L37.4,33.9z"/>
<path d="M5.8,22.7h26.6v-3H5.8L5.8,22.7L5.8,22.7z M5.8,15.3h26.6v-2.9H5.8L5.8,15.3L5.8,15.3z M5.8,5v3h26.6V5L5.8,5L5.8,5z
	 M9.4,32.5L9.4,32.5l1.8-5.2h1.8v7h-1.4v-4.8l0,0l-1.7,4.8h-1l-1.7-4.8l0,0v4.8H5.8v-7h1.8L9.4,32.5z M18.4,31.3h-2.6v2h3.1v1.1
	h-4.5v-7h4.5v1.1h-3.1v1.8h2.6L18.4,31.3L18.4,31.3z M25.6,34.4h-1.4l-2.8-4.7l0,0v4.7h-1.4v-7h1.4l2.8,4.7l0,0v-4.7h1.4V34.4
	L25.6,34.4z M32.4,27.3v4.6c0,0.8-0.3,1.4-0.8,1.9s-1.2,0.7-2,0.7c-0.8,0-1.5-0.2-2-0.7c-0.5-0.4-0.8-1.1-0.8-1.9v-4.6h1.4v4.6
	c0,0.5,0.1,0.8,0.4,1.1s0.6,0.4,1,0.4c0.4,0,0.8-0.1,1-0.4c0.3-0.2,0.4-0.6,0.4-1.1v-4.6L32.4,27.3L32.4,27.3z"/>
</svg>
