<svg xmlns="http://www.w3.org/2000/svg" width="512" height="512" viewBox="0 0 486.944 486.944"><path fill="#FF9478" d="m4.057 60 29.685 181.689c4.429 27.021 29.347 48.187 56.728 48.187h106.794L159.733 60H4.057z"/><path fill="#FF7956" d="m159.733 60 37.531 229.875h155.88L315.613 60z"/><path fill="#FF9478" d="M482.887 100V60H356.143l6.53 40zM482.887 289.875v-40h-95.744l6.531 40zM482.887 194.518v-40H371.574l6.531 40z"/><path fill="#2488FF" d="M38.583 433.41c0 29.519 24.016 53.534 53.535 53.534V379.875c-29.519 0-53.535 24.016-53.535 53.535zM297.115 433.41c0 29.519 24.015 53.534 53.534 53.534V379.875c-29.519 0-53.534 24.016-53.534 53.535z"/><path fill="#005ECE" d="M92.118 379.875v107.069c29.519 0 53.534-24.015 53.534-53.534s-24.015-53.535-53.534-53.535zM350.649 379.875v107.069c29.519 0 53.535-24.015 53.535-53.534s-24.016-53.535-53.535-53.535z"/><path fill="#2488FF" d="m356.143 60-3.266-20h25.353V0h-72.413l9.796 60 37.531 229.875 4.898 30H58.583v40h346.519l-11.428-70-6.531-40-9.038-55.357-6.531-40L362.673 100z"/></svg>