<?xml version="1.0" encoding="UTF-8"?>
<svg id="Camada_2" data-name="Camada 2" xmlns="http://www.w3.org/2000/svg" viewBox="0 0 134 134">
  <defs>
    <style>
      .cls-1 {
        fill: #fff;
      }

      .cls-2 {
        stroke: #000;
        stroke-miterlimit: 10;
        stroke-width: 3px;
      }
    </style>
  </defs>
  <g id="Camada_1-2" data-name="Camada 1">
    <circle class="cls-2" cx="67" cy="67" r="65.5"/>
    <path class="cls-1" d="M105.92,57.14c1.13-2,1.3-4.45,.43-6.4-.23-.5-.44-1.01-.65-1.52-.21-.51-.43-1.03-.65-1.54-.19-.42-.22-.58,.29-1.09,1.34-1.33,3.04-3.12,4.42-5.11,1.45-2.11,1.31-3.78,.94-4.81-.55-1.51-1.97-2.67-4.02-3.26-2.43-.7-5.05-.62-7.78,.22-1.25,.39-2.49,.84-3.71,1.31,1.73-1.73,2.88-3.46,3.6-5.36,1.4-3.7-.32-7.65-3.98-9.19-2.93-1.23-6.13-1.6-10.39-1.18-3.28,.32-5.76,2.08-7.36,5.22-.21,.4-.37,.82-.52,1.23-.56-2.41-2.29-4.27-4.85-5.23-2.89-1.09-6.23-.81-8.3,.7-.99,.72-1.74,1.68-2.01,2.58-.28,.91-.78,1.16-2.02,1.68-1.92,.8-4.13,1.78-6.01,3.19-3.19,2.39-4.58,5.8-3.8,9.35,1.21,5.51,4,8.77,8.57,9.96,1.82,.48,3.64,1.12,5.4,1.75,1.09,.38,2.17,.77,3.27,1.12,1.64,.53,3,.89,4.28,1.13,.92,.17,1.42,.34,1.53,.49,.05,.09,.09,.4-.26,1.51-1.9,6.1-4.49,11.32-7.91,15.94-2.2,2.98-4.24,6.03-6.11,8.89-6.45,9.83-13.98,19.26-22.37,28.04-.47,.5-.96,.99-1.44,1.48-.9,.92-1.79,1.83-2.65,2.78-.36,.4-.41,.91-.45,1.32-.01,.12-.02,.25-.05,.36l-.23,1.11,1.48-.18c.35-.03,.75-.06,1.15-.21,.39-.15,.63-.44,.83-.68,.06-.07,.11-.14,.17-.2,9.14-8.9,16.79-17.92,23.38-27.59l1.9-2.79c1.86-2.73,3.71-5.46,5.62-8.16,3.76-5.33,7.53-11.23,9.64-18.23,0-.03,.02-.06,.04-.09,.48,.28,.96,.56,1.43,.84,1.54,.91,2.99,1.77,4.58,2.44,6.46,2.75,13.08,2.44,19.27,1.7,2.3-.28,4.19-1.53,5.31-3.51Zm-28.88-4.47h0c-.18-.14-.35-.3-.45-.44-.11-.15-.14-.25-.07-.26,.6-.27,1.24-.52,1.79-.53,1.1-.02,2.21,.12,3.43,.28,6.38,.86,12.73,.01,19.42-2.59,.61-.24,.75-.18,.76-.18,0-.01,.11,.06,.27,.53,.16,.48,.36,.95,.56,1.41,.27,.64,.53,1.24,.67,1.86,.25,1.07,.08,2.17-.47,3-.48,.72-1.19,1.18-2.05,1.33-9.6,1.68-16.95,.45-23.14-3.87l-.71-.55Zm-11.36-16.62c-.18-.65-.39-1.29-.61-1.93-.58-1.77-1.13-3.44-1.11-5.24,0-.16,0-.29,.01-.38,.1,.03,.23,.08,.39,.14,2.14,.83,3.73,2,4.87,3.6,1.68,2.37,3.11,4.54,3.66,7.13,.41,1.92,.38,3.63-.11,5.44-3.48-2.43-6.02-4.93-7.11-8.76Zm7.81-3.56c-1.13-1.99-2.54-3.63-4.2-4.91-1.24-.96-2.62-1.72-4.13-2.27-.53-.2-.69-.4-.7-.45-.01-.06,.06-.33,.55-.77,1.18-1.05,3.14-1.31,4.99-.67,1.77,.61,3.02,1.91,3.27,3.37,.31,1.76,.37,3.62,.43,5.43,0,.22,.01,.44,.02,.66-.08-.13-.16-.27-.24-.4Zm-12.92-3.76c-.02,2.16,.6,4.15,1.19,6.08,.19,.61,.37,1.21,.54,1.83,1.41,5.17,5.03,8.31,8.07,10.55l.46,.32c.46,.32,.9,.62,1.17,.88,.01,.04,.02,.11,.02,.19-.01,0-.03,0-.03,0-.28-.04-.56-.07-.84-.1-.8-.08-1.56-.16-2.14-.46-2.44-1.25-5.04-1.99-7.57-2.7-1.14-.32-2.28-.64-3.4-1.01-2.86-.94-5.64-5.33-5.22-8.24,.14-.96,.51-1.9,.85-2.73,.11-.29,.22-.55,.31-.8,2.18-2.28,4.49-3.31,6.61-4.02,0,.05,0,.12,0,.2Zm16.24,15.51c.01-.08,.02-.15,.03-.23,.16-1.25,.32-2.5,.47-3.75,.39-3.17,.79-6.44,1.33-9.64,.3-1.8,1.03-3.55,1.82-5.34,.59-1.36,1.74-2.23,3.32-2.53,3.5-.67,6.57-.48,9.38,.58,.51,.19,.96,.44,1.33,.73,.51,.4,.89,.88,1.13,1.43,.42,.99,.36,2.16-.18,3.4-.67,1.54-1.73,2.92-3.34,4.33-1.53,1.34-3.02,2.73-4.51,4.11-.76,.71-1.51,1.41-2.36,2.19-.32,.29-.62,.57-.93,.73-.62,.31-1.24,.6-1.87,.9-.85,.39-1.69,.78-2.51,1.23-.91,.49-1.8,1.05-2.85,1.72-.08,.05-.16,.1-.24,.15Zm3.39,3.17c.83-.51,1.66-1.02,2.44-1.58,5.25-3.79,10.72-2.43,16.34-.57,.1,.03,.2,.1,.31,.18,.17,.13,.34,.31,.52,.49-.32,.21-.62,.39-.92,.49-5.7,1.9-10.47,2.57-15.01,2.11-1.51-.15-3.03-.29-4.68-.44h-.08c.36-.23,.72-.46,1.08-.68Zm22.98-11.02c.97-.05,2.08,.12,3.22,.49,.27,.08,.5,.2,.69,.35,.21,.16,.36,.36,.44,.57,.16,.43-.01,.85-.18,1.13-1.01,1.64-2.35,3.16-3.65,4.62l-.14,.17c-.11,.06-.46,.11-.49,.12-3.53-2.73-7.56-3.35-11.47-3.61,3.79-2.06,7.43-3.65,11.58-3.84Z"/>
  </g>
</svg>