<?xml version="1.0" encoding="utf-8"?>
<!-- Generator: Adobe Illustrator 16.0.0, SVG Export Plug-In . SVG Version: 6.00 Build 0)  -->
<!DOCTYPE svg PUBLIC "-//W3C//DTD SVG 1.1//EN" "http://www.w3.org/Graphics/SVG/1.1/DTD/svg11.dtd">
<svg version="1.1" id="Layer_1" xmlns="http://www.w3.org/2000/svg" xmlns:xlink="http://www.w3.org/1999/xlink" x="0px" y="0px"
	 width="144px" height="144px" viewBox="0 0 144 144" enable-background="new 0 0 144 144" xml:space="preserve">
<circle fill="#FFFFFF" cx="72" cy="72" r="72"/>
<path fill="#482E77" d="M36.874,44.559c0.289,0.279,0.434,0.646,0.434,1.101v6.665c0,0.951-0.124,1.623-0.372,2.015
	c-0.248,0.392-0.754,0.713-1.519,0.961c-0.827,0.29-1.788,0.517-2.883,0.682c-1.096,0.166-2.15,0.248-3.162,0.248
	c-2.253,0-4.206-0.444-5.859-1.333c-1.654-0.888-2.919-2.175-3.797-3.859c-0.879-1.684-1.318-3.694-1.318-6.029
	c0-2.294,0.439-4.283,1.318-5.968c0.878-1.684,2.124-2.976,3.735-3.875c1.611-0.899,3.513-1.348,5.704-1.348
	c2.914,0,5.301,0.786,7.161,2.356c0.248,0.228,0.429,0.455,0.542,0.682c0.114,0.228,0.171,0.496,0.171,0.806
	c0,0.455-0.124,0.837-0.372,1.147c-0.248,0.31-0.548,0.465-0.899,0.465c-0.228,0-0.434-0.036-0.62-0.108
	c-0.229-0.095-0.447-0.215-0.651-0.356c-0.91-0.64-1.757-1.09-2.542-1.349c-0.786-0.258-1.674-0.387-2.666-0.387
	c-2.253,0-3.953,0.667-5.1,2s-1.721,3.312-1.721,5.937c0,5.374,2.356,8.06,7.068,8.06c1.405,0,2.81-0.196,4.216-0.589v-5.487H30.24
	c-0.496,0-0.884-0.124-1.163-0.372c-0.279-0.248-0.418-0.599-0.418-1.054c0-0.455,0.14-0.806,0.418-1.054
	c0.278-0.248,0.667-0.372,1.163-0.372h5.487C36.202,44.141,36.584,44.28,36.874,44.559z M61.798,54.371
	c0,0.476-0.191,0.879-0.574,1.209c-0.362,0.323-0.832,0.5-1.317,0.496c-0.331,0-0.641-0.088-0.93-0.264
	c-0.289-0.176-0.517-0.449-0.682-0.821l-1.86-4.154H45.523l-1.86,4.154c-0.166,0.372-0.393,0.646-0.682,0.821
	c-0.29,0.175-0.61,0.264-0.961,0.264c-0.476,0-0.91-0.165-1.302-0.496c-0.393-0.33-0.589-0.733-0.589-1.209
	c0-0.268,0.062-0.537,0.186-0.806l8.556-18.383c0.186-0.413,0.47-0.729,0.853-0.945c0.382-0.217,0.791-0.326,1.225-0.326
	c0.434,0,0.842,0.108,1.225,0.326c0.382,0.217,0.667,0.532,0.853,0.945l8.587,18.383C61.736,53.833,61.798,54.103,61.798,54.371z
	 M46.887,47.737h8.184l-4.092-9.207L46.887,47.737z M82.736,34.484c0.343,0.362,0.513,0.842,0.513,1.441v18.197
	c0,0.6-0.176,1.085-0.524,1.457c-0.354,0.372-0.808,0.558-1.365,0.558c-0.661,0-1.168-0.237-1.52-0.713L68.524,40.7v13.423
	c0,0.6-0.166,1.085-0.496,1.457c-0.331,0.372-0.786,0.558-1.364,0.558S65.63,55.952,65.3,55.58
	c-0.331-0.372-0.496-0.857-0.496-1.457V35.926c0-0.599,0.175-1.08,0.527-1.441c0.352-0.361,0.816-0.542,1.395-0.542
	c0.641,0,1.137,0.238,1.488,0.713l11.284,14.663V35.926c0-0.599,0.171-1.08,0.512-1.441c0.342-0.361,0.791-0.542,1.35-0.542
	C81.938,33.942,82.396,34.123,82.736,34.484z M106.469,34.484c0.352,0.362,0.526,0.842,0.526,1.441v18.197
	c0,0.6-0.181,1.085-0.542,1.457c-0.362,0.372-0.832,0.558-1.411,0.558c-0.601,0-1.074-0.186-1.426-0.558
	c-0.353-0.372-0.526-0.857-0.526-1.457v-7.657H91.898v7.657c0,0.6-0.182,1.085-0.543,1.457s-0.842,0.558-1.441,0.558
	c-0.578,0-1.049-0.186-1.41-0.558s-0.542-0.857-0.542-1.457V35.926c0-0.599,0.175-1.08,0.526-1.441
	c0.352-0.361,0.826-0.542,1.426-0.542s1.08,0.181,1.441,0.542c0.361,0.362,0.543,0.842,0.543,1.441v7.316h11.19v-7.316
	c0-0.599,0.175-1.08,0.526-1.441c0.352-0.361,0.826-0.542,1.426-0.542S106.117,34.123,106.469,34.484z M112.219,55.456
	c-0.341-0.33-0.511-0.795-0.511-1.395V35.988c0-0.599,0.17-1.064,0.511-1.395c0.342-0.331,0.812-0.496,1.411-0.496h11.19
	c0.6,0,1.063,0.135,1.396,0.403c0.33,0.269,0.496,0.651,0.496,1.147c0,0.517-0.166,0.915-0.496,1.194
	c-0.331,0.279-0.796,0.418-1.396,0.418h-9.207v6.014h8.587c0.6,0,1.063,0.135,1.396,0.403c0.33,0.269,0.496,0.662,0.496,1.178
	c0,0.496-0.166,0.879-0.496,1.147c-0.33,0.269-0.796,0.403-1.396,0.403h-8.587v6.386h9.207c0.6,0,1.063,0.14,1.396,0.418
	c0.33,0.279,0.496,0.677,0.496,1.194c0,0.496-0.166,0.878-0.496,1.147c-0.331,0.269-0.796,0.403-1.396,0.403h-11.19
	C113.029,55.952,112.561,55.787,112.219,55.456z M33.661,110.635c0,0.43-0.173,0.783-0.518,1.063c-0.345,0.28-0.751,0.42-1.218,0.42
	c-0.623,0.001-1.204-0.315-1.54-0.841l-3.724-5.654c-0.374-0.598-0.77-1.018-1.19-1.262c-0.42-0.241-0.966-0.363-1.638-0.363h-2.744
	v6.271c0,0.561-0.159,1.004-0.476,1.33c-0.318,0.326-0.747,0.489-1.288,0.489s-0.976-0.163-1.302-0.489
	c-0.327-0.326-0.49-0.771-0.49-1.33V93.891c0-0.541,0.154-0.961,0.462-1.261c0.308-0.299,0.732-0.448,1.274-0.448h7
	c2.24,0,3.943,0.5,5.11,1.498c1.166,1,1.75,2.44,1.75,4.325c0,1.531-0.434,2.787-1.302,3.767c-0.868,0.979-2.096,1.61-3.682,1.891
	c0.541,0.131,1.017,0.363,1.428,0.699c0.411,0.337,0.812,0.804,1.204,1.399l2.548,3.894
	C33.549,109.99,33.661,110.316,33.661,110.635z M28.761,100.457c0.634-0.514,0.952-1.303,0.952-2.367
	c0-1.082-0.318-1.871-0.952-2.365c-0.635-0.494-1.634-0.742-2.996-0.742h-4.704v6.244h4.704
	C27.127,101.227,28.126,100.971,28.761,100.457z M49.159,110.131c-1.036,1.026-2.432,1.67-4.186,1.932v1.765
	c0,0.43-0.131,0.778-0.392,1.051c-0.261,0.271-0.606,0.405-1.036,0.405c-0.43,0-0.775-0.137-1.036-0.405
	c-0.262-0.271-0.392-0.621-0.392-1.051v-1.708c-1.064-0.094-2.1-0.317-3.108-0.672c-1.008-0.355-1.876-0.821-2.604-1.399
	c-0.243-0.168-0.411-0.354-0.504-0.562c-0.1-0.238-0.148-0.496-0.14-0.756c0-0.393,0.116-0.736,0.35-1.035
	c0.233-0.299,0.499-0.448,0.798-0.448c0.187,0,0.359,0.033,0.518,0.098c0.158,0.066,0.368,0.175,0.63,0.322
	c0.858,0.562,1.703,0.972,2.534,1.231c0.83,0.263,1.703,0.394,2.618,0.394c1.25,0,2.216-0.243,2.898-0.729
	c0.681-0.484,1.022-1.186,1.022-2.1c0-0.541-0.187-0.98-0.56-1.316c-0.374-0.336-0.84-0.602-1.4-0.799
	c-0.775-0.258-1.56-0.486-2.352-0.686c-1.4-0.354-2.539-0.714-3.416-1.078c-0.879-0.364-1.657-0.936-2.268-1.666
	c-0.635-0.746-0.952-1.754-0.952-3.023c0-1.512,0.542-2.801,1.624-3.863c1.082-1.063,2.501-1.727,4.256-1.987v-1.765
	c0-0.43,0.13-0.779,0.392-1.051c0.261-0.271,0.606-0.405,1.036-0.405c0.429,0,0.774,0.136,1.036,0.405
	c0.261,0.271,0.392,0.621,0.392,1.051v1.734c1.885,0.244,3.509,0.926,4.872,2.045c0.448,0.336,0.672,0.774,0.672,1.316
	c0,0.393-0.117,0.736-0.35,1.035c-0.234,0.299-0.509,0.447-0.826,0.447c-0.168,0-0.332-0.027-0.49-0.084
	c-0.222-0.088-0.433-0.201-0.63-0.336c-0.766-0.541-1.489-0.946-2.17-1.218c-0.682-0.271-1.489-0.405-2.422-0.405
	c-1.158,0-2.082,0.256-2.772,0.77c-0.691,0.514-1.036,1.219-1.036,2.114c0,0.616,0.196,1.116,0.588,1.497
	c0.392,0.384,0.887,0.678,1.484,0.883c0.597,0.206,1.409,0.439,2.436,0.699c1.362,0.337,2.473,0.683,3.332,1.037
	c0.852,0.35,1.606,0.902,2.198,1.608c0.606,0.72,0.91,1.694,0.91,2.927C50.713,107.844,50.195,109.104,49.159,110.131z
	 M88.37,108.53c0,2.263-1.28,3.392-3.841,3.392h-24.32c-1.11,0-1.984-0.33-2.624-0.992c-0.64-0.66-0.96-1.48-0.96-2.463
	c0-1.279,0.49-2.433,1.472-3.457l14.592-15.68c1.793-1.962,3.104-3.766,3.937-5.408c0.832-1.642,1.248-3.273,1.248-4.896
	c0-2.004-0.576-3.541-1.729-4.607c-1.15-1.064-2.795-1.6-4.928-1.6c-1.75,0-3.446,0.33-5.088,0.992
	c-1.643,0.662-3.296,1.567-4.96,2.72c-0.427,0.3-0.854,0.544-1.28,0.735c-0.401,0.187-0.838,0.285-1.28,0.289
	c-0.726,0-1.355-0.343-1.888-1.024c-0.534-0.683-0.8-1.493-0.8-2.433c0-0.64,0.117-1.193,0.352-1.664
	c0.234-0.469,0.608-0.917,1.12-1.344c1.877-1.493,4.074-2.677,6.592-3.552c2.517-0.874,5.034-1.312,7.552-1.312
	c4.395,0,7.904,1.11,10.529,3.328c2.623,2.219,3.936,5.206,3.936,8.959c0,2.604-0.555,5.047-1.664,7.327
	c-1.109,2.283-2.986,4.832-5.632,7.648l-11.072,11.776h16.896C87.09,105.268,88.37,106.354,88.37,108.53z M98.098,106.578
	c-2.814-3.945-4.224-9.695-4.224-17.248c0-7.51,1.408-13.236,4.224-17.184c2.816-3.946,6.891-5.92,12.226-5.92
	c5.333,0,9.407,1.974,12.224,5.92c2.816,3.947,4.225,9.674,4.225,17.184s-1.408,13.248-4.225,17.217
	c-2.814,3.967-6.891,5.951-12.224,5.951C104.988,112.498,100.914,110.525,98.098,106.578z M116.658,102.034
	c1.32-2.666,1.982-6.901,1.982-12.704c0-5.846-0.662-10.08-1.982-12.703c-1.323-2.625-3.436-3.938-6.336-3.938
	c-2.902,0-5.016,1.324-6.338,3.969c-1.321,2.646-1.982,6.869-1.982,12.672s0.661,10.038,1.982,12.704c1.322,2.667,3.436,4,6.338,4
	C113.223,106.034,115.335,104.701,116.658,102.034z"/>
</svg>
